<svg width="16" height="17" viewBox="0 0 16 17" fill="none" xmlns="http://www.w3.org/2000/svg">
<path fill-rule="evenodd" clip-rule="evenodd" d="M6.98616 2.2915H9.01414C9.14434 2.2915 9.25774 2.2915 9.36454 2.3083C9.57256 2.34163 9.7699 2.42318 9.94076 2.54643C10.1116 2.66968 10.2513 2.83121 10.3485 3.0181C10.3989 3.1141 10.4343 3.2215 10.4757 3.3445L10.5423 3.54549L10.5603 3.59649C10.6146 3.74718 10.7157 3.87653 10.8489 3.96561C10.982 4.05468 11.1401 4.09879 11.3001 4.09149H13.1001C13.2195 4.09149 13.3339 4.1389 13.4183 4.22329C13.5027 4.30768 13.5501 4.42214 13.5501 4.54148C13.5501 4.66083 13.5027 4.77529 13.4183 4.85968C13.3339 4.94407 13.2195 4.99148 13.1001 4.99148H2.90019C2.78085 4.99148 2.66639 4.94407 2.582 4.85968C2.49761 4.77529 2.4502 4.66083 2.4502 4.54148C2.4502 4.42214 2.49761 4.30768 2.582 4.22329C2.66639 4.1389 2.78085 4.09149 2.90019 4.09149H4.75418C4.91444 4.08764 5.06925 4.03255 5.19591 3.93429C5.32257 3.83603 5.41441 3.69977 5.45797 3.54549L5.52517 3.3445C5.56597 3.2215 5.60137 3.1141 5.65117 3.0181C5.74848 2.83114 5.88822 2.66956 6.0592 2.54631C6.23017 2.42305 6.42763 2.34154 6.63576 2.3083C6.74256 2.2915 6.85656 2.2915 6.98616 2.2915ZM6.20436 4.09149C6.24592 4.00872 6.28102 3.92286 6.30936 3.83469L6.36936 3.65469C6.42396 3.49089 6.43656 3.45789 6.44916 3.43389C6.48155 3.3715 6.52811 3.31756 6.5851 3.27641C6.6421 3.23525 6.70794 3.20802 6.77736 3.1969C6.85556 3.18997 6.93412 3.18817 7.01256 3.1915H8.98654C9.15934 3.1915 9.19534 3.1927 9.22174 3.1975C9.2911 3.20855 9.3569 3.23569 9.41389 3.27674C9.47088 3.31779 9.51747 3.37161 9.54993 3.43389C9.56253 3.45789 9.57513 3.49089 9.62973 3.65529L9.68973 3.83529L9.71313 3.90249C9.73673 3.96809 9.76393 4.03109 9.79473 4.09149H6.20436Z" fill="#CCCCCC"/>
<path d="M4.34918 6.31157C4.34122 6.19246 4.28628 6.08139 4.19643 6.0028C4.10658 5.9242 3.98919 5.88452 3.87008 5.89247C3.75098 5.90043 3.63991 5.95538 3.56131 6.04523C3.48271 6.13507 3.44303 6.25246 3.45099 6.37157L3.72938 10.5427C3.78038 11.3119 3.82178 11.9335 3.91898 12.4219C4.02038 12.9289 4.19198 13.3525 4.54718 13.6843C4.90237 14.0161 5.33617 14.1601 5.84917 14.2267C6.34236 14.2915 6.96516 14.2915 7.73675 14.2915H8.26415C9.03514 14.2915 9.65854 14.2915 10.1517 14.2267C10.6641 14.1601 11.0985 14.0167 11.4537 13.6843C11.8083 13.3525 11.9799 12.9283 12.0813 12.4219C12.1785 11.9341 12.2193 11.3119 12.2709 10.5427L12.5493 6.37157C12.5573 6.25246 12.5176 6.13507 12.439 6.04523C12.3604 5.95538 12.2493 5.90043 12.1302 5.89247C12.0111 5.88452 11.8937 5.9242 11.8039 6.0028C11.714 6.08139 11.6591 6.19246 11.6511 6.31157L11.3751 10.4515C11.3211 11.2597 11.2827 11.8225 11.1987 12.2455C11.1165 12.6565 11.0025 12.8737 10.8387 13.0273C10.6743 13.1809 10.4499 13.2805 10.0347 13.3345C9.60693 13.3903 9.04294 13.3915 8.23235 13.3915H7.76795C6.95796 13.3915 6.39396 13.3903 5.96557 13.3345C5.55037 13.2805 5.32597 13.1809 5.16157 13.0273C4.99777 12.8737 4.88377 12.6565 4.80158 12.2461C4.71758 11.8225 4.67918 11.2597 4.62518 10.4509L4.34918 6.31157Z" fill="#CCCCCC"/>
<path d="M6.45516 7.24391C6.57386 7.23202 6.69243 7.26774 6.7848 7.34324C6.87717 7.41873 6.93579 7.52781 6.94776 7.64651L7.24775 10.6465C7.25654 10.7635 7.21925 10.8794 7.14383 10.9693C7.0684 11.0593 6.96082 11.1162 6.84404 11.1279C6.72725 11.1397 6.61049 11.1053 6.51868 11.0322C6.42686 10.959 6.36725 10.8529 6.35256 10.7365L6.05256 7.73651C6.04067 7.61781 6.0764 7.49924 6.15189 7.40687C6.22738 7.3145 6.33647 7.25588 6.45516 7.24391ZM9.54514 7.24391C9.66371 7.25589 9.7727 7.31442 9.84818 7.40665C9.92366 7.49889 9.95946 7.6173 9.94773 7.73591L9.64773 10.7359C9.63286 10.8521 9.57322 10.958 9.48152 11.0309C9.38981 11.1039 9.27327 11.1382 9.15666 11.1265C9.04006 11.1149 8.9326 11.0582 8.85713 10.9686C8.78166 10.8789 8.74414 10.7634 8.75254 10.6465L9.05254 7.64651C9.06451 7.52793 9.12304 7.41894 9.21528 7.34347C9.30752 7.26799 9.42653 7.23218 9.54514 7.24391Z" fill="#CCCCCC"/>
</svg>
