<svg width="15" height="14" viewBox="0 0 15 14" fill="none" xmlns="http://www.w3.org/2000/svg">
<path d="M14.5303 0.634315C14.5978 0.633444 14.6649 0.64761 14.7266 0.675331C14.7882 0.703111 14.8435 0.744216 14.8877 0.795448C14.9318 0.846647 14.964 0.907178 14.9824 0.972206C15.0008 1.03724 15.005 1.1057 14.9941 1.1724L14.04 7.02396L13.0293 13.2495C13.0115 13.3592 12.9552 13.4593 12.8701 13.5308C12.7852 13.6022 12.6773 13.6405 12.5664 13.6392H3.125C3.03374 13.6384 2.94546 13.6159 2.86426 13.5777C2.81328 13.5539 2.76412 13.5249 2.7207 13.4878C2.60816 13.3917 2.53327 13.2588 2.50879 13.1128L0.541014 1.16947C0.53027 1.10284 0.534381 1.03423 0.552732 0.969276C0.571107 0.904467 0.603517 0.844554 0.647459 0.793495C0.691625 0.742263 0.746918 0.701158 0.808592 0.673378C0.870216 0.645651 0.93731 0.631491 1.00488 0.632362L14.5303 0.634315ZM5.46094 5.00248L6.27637 9.2642H9.28906L10.0186 5.00248H5.46094Z" fill="#E3E3E3"/>
</svg>
