<svg width="14" height="13" viewBox="0 0 14 13" fill="none" xmlns="http://www.w3.org/2000/svg">
<g id="Vector">
<path d="M13.0135 12.4219H0.987946C0.848564 12.4214 0.711711 12.3846 0.590896 12.3151C0.47008 12.2456 0.36948 12.1458 0.299027 12.0255C0.228308 11.905 0.190835 11.7679 0.190433 11.6282C0.190031 11.4884 0.226714 11.3511 0.296738 11.2302L6.31314 0.818976C6.38254 0.69815 6.48262 0.597795 6.60326 0.528065C6.7239 0.458335 6.86081 0.421704 7.00015 0.421876C7.28358 0.421876 7.54755 0.574079 7.68869 0.819358L13.6887 11.2043C13.7639 11.3248 13.8055 11.4632 13.8092 11.6052C13.8128 11.7472 13.7784 11.8876 13.7096 12.0118C13.6407 12.1361 13.5398 12.2396 13.4174 12.3117C13.295 12.3838 13.1556 12.4218 13.0135 12.4219ZM6.97345 1.20044L0.958192 11.6101L0.987946 11.6593H13.0135C13.0303 11.6593 13.0467 11.6429 13.0467 11.6265C13.044 11.6223 13.0307 11.5899 13.028 11.5857L7.02762 1.20044H6.97345Z" fill="#FF2210"/>
<path d="M6.70361 5.06357V7.71884C6.70736 7.80819 6.7455 7.89263 6.81004 7.95452C6.87459 8.01641 6.96055 8.05097 7.04998 8.05097C7.1394 8.05097 7.22537 8.01641 7.28992 7.95452C7.35446 7.89263 7.3926 7.80819 7.39635 7.71884V5.06357C7.39627 4.97162 7.35979 4.88344 7.29488 4.81831C7.22998 4.75317 7.14193 4.71638 7.04998 4.71598C6.85986 4.71598 6.70361 4.87253 6.70361 5.06357ZM7.05029 8.52723C6.85986 8.52723 6.70392 8.68165 6.70392 8.87269V9.10492C6.70456 9.1965 6.74129 9.28413 6.80613 9.3488C6.87097 9.41348 6.9587 9.44997 7.05029 9.45037C7.24132 9.45037 7.39665 9.29382 7.39665 9.10492V8.87269C7.39665 8.68165 7.24102 8.52723 7.05029 8.52723Z" fill="#FF2210"/>
</g>
</svg>
