<svg width="12" height="12" viewBox="0 0 12 12" fill="none" xmlns="http://www.w3.org/2000/svg">
<path d="M10.9555 3.39765L7.66141 0.103529C7.59528 0.0373212 7.50557 8.23774e-05 7.41199 0H1.76494C1.54652 0 1.33705 0.0867645 1.18261 0.241206C1.02817 0.395648 0.941406 0.605116 0.941406 0.823529V11.1765C0.941406 11.3949 1.02817 11.6044 1.18261 11.7588C1.33705 11.9132 1.54652 12 1.76494 12H10.2355C10.4539 12 10.6634 11.9132 10.8178 11.7588C10.9723 11.6044 11.0591 11.3949 11.0591 11.1765V3.64706C11.059 3.55348 11.0217 3.46377 10.9555 3.39765ZM7.76494 1.20471L9.85435 3.29412H7.76494V1.20471ZM10.2355 11.2941H1.76494C1.73373 11.2941 1.70381 11.2817 1.68175 11.2597C1.65968 11.2376 1.64729 11.2077 1.64729 11.1765V0.823529C1.64729 0.792327 1.65968 0.762403 1.68175 0.74034C1.70381 0.718277 1.73373 0.705882 1.76494 0.705882H7.05905V3.64706C7.05905 3.74066 7.09624 3.83044 7.16243 3.89663C7.22862 3.96282 7.31839 4 7.41199 4H10.3532V11.1765C10.3532 11.2077 10.3408 11.2376 10.3187 11.2597C10.2966 11.2817 10.2667 11.2941 10.2355 11.2941Z" fill="#E3E3E3"/>
</svg>
