<svg width="17" height="17" viewBox="0 0 17 17" fill="none" xmlns="http://www.w3.org/2000/svg">
<g clip-path="url(#clip0_6106_23593)">
<path d="M16.5 8.56061V7.94061H14.13C14.07 6.74061 13.63 5.56061 12.87 4.60061H14.51V3.98061H12.53V2.00061H11.91V3.64061C10.95 2.88061 9.76 2.44061 8.57 2.38061V0.000610352H7.95V2.37061C6.75 2.43061 5.57 2.87061 4.61 3.63061V1.99061H3.99V3.97061H2.01V4.59061H3.65C2.89 5.55061 2.45 6.74061 2.39 7.93061H0V8.55061H2.37C2.43 9.75061 2.88 10.9306 3.63 11.8906H1.99V12.5106H3.97V14.4906H4.59V12.8506C5.55 13.6006 6.73 14.0506 7.93 14.1106V16.4806H8.55V14.1106C9.75 14.0506 10.93 13.6006 11.89 12.8506V14.4906H12.51V12.5106H14.49V11.8906H12.85C13.6 10.9306 14.05 9.75061 14.11 8.55061H16.48L16.5 8.56061ZM11.91 8.88061V11.4806L10.3 9.87061C10.77 9.45061 11.31 9.11061 11.91 8.88061ZM9.67 10.5406C9.67 10.5406 9.78 10.4006 9.85 10.3206L11.43 11.9006H8.87C9.06 11.4206 9.33 10.9606 9.67 10.5306V10.5406ZM7.94 13.0606C7.94 13.1806 7.94 13.3006 7.94 13.4206C7.94 13.4506 7.94 13.4806 7.94 13.5206C6.95 13.4706 5.98 13.1206 5.18 12.5406H7.83C7.87 12.7206 7.93 13.0106 7.94 13.0706V13.0606ZM4.59 7.63061V5.07061L6.17 6.65061C5.7 7.06061 5.17 7.40061 4.59 7.62061V7.63061ZM5.01 4.59061H7.61C7.38 5.19061 7.04 5.74061 6.62 6.20061L5 4.59061H5.01ZM5.61 8.25061C6.73 7.64061 7.66 6.71061 8.25 5.60061C8.86 6.72061 9.79 7.66061 10.9 8.24061C9.78 8.83061 8.86 9.75061 8.25 10.8806C7.66 9.76061 6.73 8.83061 5.61 8.24061V8.25061ZM8.87 4.59061H11.91V7.63061C10.54 7.09061 9.42 5.96061 8.87 4.59061ZM8.56 3.46061C8.56 3.34061 8.56 3.22061 8.56 3.10061V3.00061C9.55 3.05061 10.52 3.40061 11.32 3.98061H8.67L8.64 3.87061C8.6 3.73061 8.57 3.60061 8.56 3.46061ZM5.18 3.97061C5.98 3.39061 6.95 3.04061 7.94 2.99061C7.94 3.02061 7.94 3.05061 7.94 3.09061C7.94 3.21061 7.94 3.33061 7.94 3.44061C7.93 3.60061 7.88 3.78061 7.83 3.96061H5.18V3.97061ZM7.62 11.9106H4.6V8.89061C5.97 9.42061 7.09 10.5406 7.62 11.9106ZM11.32 12.5306C10.52 13.1106 9.55 13.4506 8.56 13.5106V13.4106C8.56 13.2906 8.55 13.1706 8.56 13.0506C8.57 12.9206 8.61 12.7806 8.64 12.6406L8.67 12.5306H11.32ZM13.51 8.56061C13.46 9.55061 13.11 10.5206 12.53 11.3206V8.67061C12.71 8.63061 13 8.57061 13.06 8.56061C13.17 8.56061 13.29 8.56061 13.42 8.56061C13.45 8.56061 13.48 8.56061 13.51 8.56061ZM13.41 7.94061C13.29 7.94061 13.17 7.94061 13.05 7.94061C12.92 7.93061 12.78 7.89061 12.64 7.86061C12.6 7.86061 12.57 7.84061 12.54 7.83061V5.18061C13.12 5.98061 13.46 6.95061 13.52 7.94061C13.49 7.94061 13.45 7.94061 13.42 7.94061H13.41ZM3.09 7.94061C3.09 7.94061 3.02 7.94061 2.99 7.94061C3.04 6.95061 3.39 5.98061 3.97 5.18061V7.83061C3.97 7.83061 3.9 7.85061 3.87 7.86061C3.73 7.90061 3.6 7.93061 3.46 7.94061C3.34 7.94061 3.22 7.94061 3.1 7.94061H3.09ZM3.09 8.56061C3.21 8.56061 3.33 8.56061 3.45 8.56061C3.61 8.57061 3.79 8.62061 3.97 8.67061V11.3206C3.39 10.5206 3.05 9.55061 3 8.56061C3.03 8.56061 3.06 8.56061 3.09 8.56061Z" fill="#1F46C1"/>
</g>
<defs>
<clipPath id="clip0_6106_23593">
<rect width="16.5" height="16.5" fill="white" transform="translate(0 0.000610352)"/>
</clipPath>
</defs>
</svg>
