<svg width="16" height="16" viewBox="0 0 16 16" fill="none" xmlns="http://www.w3.org/2000/svg">
<path d="M5.32258 12.8842C5.32258 12.8182 5.25806 12.7521 5.16129 12.7521C5.06452 12.7521 5 12.8182 5 12.8842C5 12.9503 5.06452 13.0164 5.16129 12.9833C5.25806 12.9833 5.32258 12.9503 5.32258 12.8842ZM4.32258 12.719C4.32258 12.7851 4.3871 12.8842 4.48387 12.8842C4.54839 12.9173 4.64516 12.8842 4.67742 12.8182C4.67742 12.7521 4.64516 12.686 4.54839 12.653C4.45161 12.6199 4.35484 12.653 4.32258 12.719ZM5.77419 12.686C5.67742 12.686 5.6129 12.7521 5.6129 12.8512C5.6129 12.9173 5.70968 12.9503 5.80645 12.9173C5.90323 12.8842 5.96774 12.8512 5.93548 12.7851C5.93548 12.719 5.83871 12.653 5.77419 12.686ZM7.87097 0C3.41935 0 0 3.50187 0 8.0609C0 11.7279 2.22581 14.8664 5.45161 15.9897C5.87097 16.0557 6 15.7914 6 15.5932C6 15.362 6 14.2387 6 13.545C6 13.545 3.74194 14.0405 3.25806 12.5539C3.25806 12.5539 2.90323 11.5958 2.3871 11.3645C2.3871 11.3645 1.64516 10.836 2.41935 10.836C2.41935 10.836 3.22581 10.902 3.67742 11.6949C4.3871 12.9833 5.54839 12.6199 6.03226 12.3887C6.09677 11.8601 6.29032 11.4967 6.54839 11.2654C4.74194 11.0672 2.90323 10.8029 2.90323 7.63142C2.90323 6.7064 3.16129 6.27693 3.67742 5.68227C3.58065 5.45102 3.32258 4.59207 3.77419 3.43579C4.41935 3.23757 6 4.32778 6 4.32778C6.64516 4.12956 7.32258 4.06349 8 4.06349C8.70968 4.06349 9.3871 4.12956 10.0323 4.32778C10.0323 4.32778 11.5806 3.20454 12.2581 3.43579C12.7097 4.59207 12.4194 5.45102 12.3548 5.68227C12.871 6.27693 13.1935 6.7064 13.1935 7.63142C13.1935 10.8029 11.2903 11.0672 9.48387 11.2654C9.77419 11.5297 10.0323 12.0253 10.0323 12.8182C10.0323 13.9084 10 15.2959 10 15.5602C10 15.7914 10.1613 16.0557 10.5806 15.9566C13.8065 14.8664 16 11.7279 16 8.0609C16 3.50187 12.3548 0 7.87097 0ZM3.12903 11.3976C3.06452 11.4306 3.09677 11.5297 3.12903 11.5958C3.19355 11.6288 3.25806 11.6619 3.32258 11.6288C3.35484 11.5958 3.35484 11.4967 3.29032 11.4306C3.22581 11.3976 3.16129 11.3645 3.12903 11.3976ZM2.77419 11.1333C2.74194 11.1994 2.77419 11.2324 2.83871 11.2654C2.90323 11.2985 2.96774 11.2985 3 11.2324C3 11.1994 2.96774 11.1663 2.90323 11.1333C2.83871 11.1003 2.80645 11.1003 2.77419 11.1333ZM3.80645 12.3226C3.77419 12.3556 3.77419 12.4547 3.87097 12.5208C3.93548 12.5869 4.03226 12.6199 4.06452 12.5539C4.09677 12.5208 4.09677 12.4217 4.03226 12.3556C3.96774 12.2896 3.87097 12.2565 3.80645 12.3226ZM3.45161 11.8271C3.3871 11.8601 3.3871 11.9592 3.45161 12.0253C3.51613 12.0913 3.58065 12.1244 3.64516 12.0913C3.67742 12.0583 3.67742 11.9592 3.64516 11.8931C3.58065 11.8271 3.51613 11.794 3.45161 11.8271Z" fill="#E3E3E3"/>
</svg>
