<svg width="12" height="10" viewBox="0 0 12 10" fill="none" xmlns="http://www.w3.org/2000/svg">
<path fill-rule="evenodd" clip-rule="evenodd" d="M0.00599999 1.625L0 8.375C0 8.99375 0.54 9.5 1.2 9.5H10.8C11.46 9.5 12 8.99375 12 8.375V2.75C12 2.13125 11.46 1.625 10.8 1.625H6L4.8 0.5H1.2C0.54 0.5 0.00599999 1.00625 0.00599999 1.625ZM4.40455 1.5H1.2C1.12822 1.5 1.07452 1.5269 1.04196 1.55764C1.01007 1.58774 1.006 1.6121 1.006 1.625L1 8.375C1 8.37495 1 8.37505 1 8.375C1.00003 8.38434 1.00278 8.40844 1.03644 8.43999C1.07117 8.47255 1.12756 8.5 1.2 8.5H10.8C10.8724 8.5 10.9288 8.47255 10.9636 8.43999C10.9974 8.40827 11 8.38423 11 8.375V2.75C11 2.74077 10.9974 2.71673 10.9636 2.68501C10.9288 2.65245 10.8724 2.625 10.8 2.625H5.60455L4.40455 1.5Z" fill="#E3E3E3"/>
</svg>
