<svg width="14" height="10" viewBox="0 0 14 10" fill="none" xmlns="http://www.w3.org/2000/svg">
<path d="M7 0.333008C1.6856 0.333008 0.0884226 4.74434 0.0738015 4.78901L0 4.99967L0.0731053 5.21034C0.0884226 5.25501 1.6856 9.66634 7 9.66634C12.3144 9.66634 13.9116 5.25501 13.9262 5.21034L14 4.99967L13.9269 4.78901C13.9116 4.74434 12.3144 0.333008 7 0.333008ZM7 8.33301C3.27442 8.33301 1.83111 5.76901 1.4816 4.99967C1.8325 4.22767 3.27651 1.66634 7 1.66634C10.7256 1.66634 12.1689 4.23034 12.5184 4.99967C12.1675 5.77167 10.7235 8.33301 7 8.33301Z" fill="#E3E3E3"/>
<path d="M7 2.99967C6.44716 3.00317 5.91801 3.215 5.52708 3.58932C5.13616 3.96364 4.91493 4.47032 4.91128 4.99967C4.91128 6.09434 5.85677 6.99967 7 6.99967C8.14323 6.99967 9.08872 6.09434 9.08872 4.99967C9.08872 3.90501 8.14253 2.99967 7 2.99967Z" fill="#E3E3E3"/>
</svg>
