<svg width="14" height="15" viewBox="0 0 14 15" fill="none" xmlns="http://www.w3.org/2000/svg">
<path fill-rule="evenodd" clip-rule="evenodd" d="M8.04511 3.10134C7.83438 2.75531 7.45922 2.54339 7.05408 2.54152C6.64894 2.53964 6.27184 2.74809 6.05792 3.09215L1.34289 10.6755C1.11921 11.0352 1.10811 11.488 1.3139 11.8583C1.5197 12.2285 1.91003 12.4582 2.33366 12.4582H11.667C12.0887 12.4582 12.4776 12.2306 12.6841 11.863C12.8907 11.4953 12.8828 11.0448 12.6634 10.6847L8.04511 3.10134ZM2.33366 11.2915L7.04869 3.70817L11.667 11.2915H2.33366ZM6.41709 6.0415L7.58366 6.0417V8.95817H6.41699L6.41709 6.0415ZM6.41699 9.5415H7.58366V10.7082H6.41699V9.5415Z" fill="#FF2210"/>
</svg>
