<?xml version="1.0" encoding="iso-8859-1"?>
<!-- Uploaded to: SVG Repo, www.svgrepo.com, Generator: SVG Repo Mixer Tools -->
<svg fill="#000000" height="800px" width="800px" version="1.1" id="Layer_1" xmlns="http://www.w3.org/2000/svg" xmlns:xlink="http://www.w3.org/1999/xlink" 
	 viewBox="0 0 392.663 392.663" xml:space="preserve">
<g>
	<g>
		<path d="M381.663,0H117c-6.012,0-10.925,4.849-10.925,10.925v146.747c-2.909,9.568-4.59,19.717-4.59,30.19
			c0,24.501,8.663,47.063,22.95,64.776l-9.891,9.891c-5.172-2.715-10.99-4.202-17.002-4.202c-9.826,0-19.006,3.814-25.859,10.731
			L10.722,330.02c-7.24,7.24-11.184,17.39-10.667,27.669c0.453,10.279,5.301,20.04,13.382,26.57
			c6.335,5.172,14.352,8.145,22.82,8.145c10.149,0,20.04-4.073,27.216-11.313l42.731-42.731v43.378
			c0,6.012,4.849,10.925,10.925,10.925h193.034c2.844,0,5.624-1.164,7.758-3.168l71.564-71.564c2.004-2.004,3.168-4.784,3.168-7.758
			V10.861C392.524,4.849,387.675,0,381.663,0z M108.079,305.455l-60.186,60.121c-6.852,6.853-15.515,5.624-20.687,1.875
			c-9.051-6.723-6.594-16.549-1.164-22.044l60.962-60.962c5.495-5.495,15.192-5.818,21.01,0
			C114.091,290.457,113.833,299.766,108.079,305.455z M123.788,180.105h47.774c6.012,0,10.925-4.848,10.925-10.925
			s-4.848-10.925-10.925-10.925h-42.537c11.83-30.319,41.244-51.782,75.701-51.782c44.8,0,81.39,36.461,81.39,81.39
			c0,44.8-36.461,81.261-81.39,81.261c-32,0-59.604-18.554-72.857-45.446h12.412c6.012,0,10.925-4.848,10.925-10.925
			c0-6.012-4.849-10.925-10.925-10.925h-19.523C123.853,197.366,122.689,185.277,123.788,180.105z M320.96,355.297V320.97h34.327
			L320.96,355.297z M310.099,299.119c-6.012,0-10.925,4.849-10.925,10.925v60.186c0,0.129,0.065,0.323,0.065,0.453H127.861v-55.143
			c4.202-6.012,6.4-13.123,6.4-20.622c0-6.012-1.487-11.83-4.202-17.002l9.891-9.891c17.713,14.287,40.275,22.949,64.776,22.949
			c19.717,0,38.141-5.624,53.85-15.321c0.776,0.129,81.907,0.323,81.907,0.323c6.012,0,10.925-4.848,10.925-10.925
			s-4.849-10.925-10.925-10.925H283.53c11.119-13.188,19.006-29.285,22.303-46.998h34.457c6.012,0,10.925-4.849,10.925-10.925
			c0-6.077-4.848-10.925-10.925-10.925h-32.776c-0.388-17.002-4.848-32.97-12.606-46.998h45.253c6.012,0,10.925-4.848,10.925-10.925
			c0-6.012-4.849-10.925-10.925-10.925c0,0-61.22,0.065-61.349,0.065c-18.747-19.653-45.123-31.935-74.408-31.935
			c-30.513,0-57.859,13.382-76.8,34.521V21.786h242.877v277.361c-0.069-0.014-0.138-0.028-0.194-0.028H310.099z"/>
	</g>
</g>
<g>
	<g>
		<path d="M263.942,322.909H158.374c-6.012,0-10.925,4.848-10.925,10.925c0,6.012,4.849,10.925,10.925,10.925h105.568
			c6.012,0,10.925-4.849,10.925-10.925S269.889,322.909,263.942,322.909z"/>
	</g>
</g>
<g>
	<g>
		<path d="M340.419,47.709H158.374c-6.012,0-10.925,4.848-10.925,10.925c0.065,6.012,4.913,10.925,10.925,10.925h182.044
			c6.012,0,10.925-4.848,10.925-10.925C351.344,52.622,346.495,47.709,340.419,47.709z"/>
	</g>
</g>
</svg>