<?xml version="1.0" encoding="UTF-8" standalone="no"?>
<svg
   version="1.1"
   id="Layer_1"
   x="0px"
   y="0px"
   viewBox="0 0 122.215 122.875"
   xml:space="preserve"
   sodipodi:docname="8d41e3ce45238efcc97eb2d33acde9d1.svg"
   width="122.215"
   height="122.875"
   xmlns:inkscape="http://www.inkscape.org/namespaces/inkscape"
   xmlns:sodipodi="http://sodipodi.sourceforge.net/DTD/sodipodi-0.dtd"
   xmlns="http://www.w3.org/2000/svg"
   xmlns:svg="http://www.w3.org/2000/svg"
   style="filter: invert(100%);">
  <defs id="defs9" />
  <sodipodi:namedview
     id="namedview7"
     pagecolor="#ffffff"
     bordercolor="#666666"
     borderopacity="1.0"
     inkscape:pageshadow="2"
     inkscape:pageopacity="0.0"
     inkscape:pagecheckerboard="0" />
  <g id="g4" transform="translate(-0.005)">
    <path
       d="m 50.19,45.72 13.25,13.25 c 1.1,1.1 1.1,2.9 0,4 -1.1,1.1 -2.9,1.1 -4,0 L 46.19,49.72 40.73,55.18 53.98,68.43 c 1.1,1.1 1.1,2.9 0,4 -1.1,1.1 -2.9,1.1 -4,0 L 36.73,59.19 31.27,64.65 44.52,77.9 c 1.1,1.1 1.1,2.9 0,4 -1.1,1.1 -2.9,1.1 -4,0 L 27.27,68.65 21.81,74.11 35.06,87.36 c 1.1,1.1 1.1,2.9 0,4 -1.1,1.1 -2.9,1.1 -4,0 L 17.81,78.11 16.88,79.04 v 0 c -2.49,2.49 -3.73,5.77 -3.73,9.05 0,3.28 1.24,6.57 3.73,9.05 v 0 l 3.71,3.71 c 0.31,0.14 0.6,0.33 0.86,0.59 0.25,0.26 0.45,0.55 0.59,0.86 l 4.4,4.4 v 0 c 2.17,2.17 5.03,3.25 7.9,3.25 2.87,0 5.73,-1.09 7.9,-3.25 v 0 L 84.48,64.46 57.98,37.96 Z m 10.12,-13.61 2.72,2.72 15.19,-15.19 c -1.93,-2.22 -2.9,-5 -2.9,-7.78 0,-3.04 1.16,-6.08 3.47,-8.39 v 0 0 C 81.1,1.16 84.15,0 87.19,0 c 3.04,0 6.08,1.16 8.39,3.47 l 23.18,23.18 c 2.3,2.3 3.45,5.35 3.45,8.39 h 0.01 c 0,3.04 -1.16,6.08 -3.47,8.39 v 0 c -2.31,2.31 -5.35,3.47 -8.39,3.47 -2.61,0 -5.21,-0.85 -7.36,-2.55 l -15.22,15.23 2.53,2.53 c 0.2,0.2 0.36,0.43 0.48,0.67 l 5.66,5.66 c 1.1,1.1 1.1,2.9 0,4 -1.1,1.1 -2.9,1.1 -4,0 L 87.97,67.96 45.73,110.2 v 0 c -3.14,3.14 -7.27,4.71 -11.4,4.71 -4.13,0 -8.26,-1.57 -11.4,-4.71 v 0 l -3.12,-3.12 -14.98,14.97 c -1.1,1.1 -2.9,1.1 -4,0 -1.1,-1.1 -1.1,-2.9 0,-4 l 14.98,-14.98 -2.43,-2.43 v 0 C 9.93,97.19 8.2,92.64 8.2,88.09 c 0,-4.55 1.73,-9.1 5.18,-12.55 v 0 L 54.46,34.46 50.44,30.44 c -1.1,-1.1 -1.1,-2.9 0,-4 1.1,-1.1 2.9,-1.1 4,0 l 5.2,5.2 c 0.24,0.11 0.47,0.27 0.67,0.47 z M 114.26,31.15 91.08,7.97 C 90.01,6.9 88.6,6.37 87.19,6.37 c -1.41,0 -2.82,0.53 -3.89,1.6 v 0 0 c -1.07,1.07 -1.6,2.48 -1.6,3.89 0,1.41 0.53,2.82 1.6,3.89 v 0 l 23.18,23.18 c 1.07,1.07 2.48,1.6 3.89,1.6 1.41,0 2.82,-0.53 3.89,-1.6 v 0 c 1.07,-1.07 1.6,-2.48 1.6,-3.89 h 0.01 c 0,-1.41 -0.54,-2.82 -1.61,-3.89 z M 98.29,40.06 82.55,24.32 68.12,38.75 83.86,54.49 Z"
       id="path2" />
  </g>
</svg>