<svg xmlns="http://www.w3.org/2000/svg"  viewBox="0 0 64 64" width="16px" height="16px"><path d="M 41.621094 5 C 41.058094 5 9.2578125 7.3261719 9.2578125 7.3261719 C 7.1568125 7.5061719 6 8.7829688 6 10.917969 L 6 43.085938 C 6 44.528937 6.5161563 45.780156 7.7851562 47.410156 L 14.867188 56.398438 C 15.873188 57.627437 16.812891 58 18.587891 58 C 18.811891 58 19.046547 57.992469 19.310547 57.980469 L 54.236328 55.966797 C 56.347328 55.841797 58 54.086656 58 51.972656 L 58 16.064453 C 58 15.075453 57.513547 14.150031 56.685547 13.582031 L 46.306641 6.7070312 C 44.649641 5.5460313 43.646094 5 41.621094 5 z M 41.632812 6.9980469 C 43.051812 6.9990469 43.628687 7.2714219 45.179688 8.3574219 L 54.011719 14.208984 C 54.110719 14.274984 54.144281 14.365469 54.113281 14.480469 C 54.083281 14.595469 54.008672 14.658969 53.888672 14.667969 C 53.888672 14.667969 19.758391 16.935547 19.025391 16.935547 L 19.021484 16.935547 C 17.440484 16.936547 16.44525 16.716875 14.78125 15.421875 L 9.7109375 10.417969 C 9.4349375 10.145969 9.5077344 9.8348906 9.5527344 9.7128906 C 9.5977344 9.5908906 9.7419062 9.3053906 10.128906 9.2753906 C 10.128906 9.2753906 40.881813 7.0260469 41.632812 6.9980469 z M 44.361328 10.033203 C 43.810328 10.068203 43.392734 10.544703 43.427734 11.095703 L 43.556641 13.091797 C 43.590641 13.622797 44.029734 14.027344 44.552734 14.027344 C 44.573734 14.027344 44.595188 14.026391 44.617188 14.025391 C 45.168188 13.990391 45.587734 13.515844 45.552734 12.964844 L 45.423828 10.96875 C 45.387828 10.41675 44.929328 10.009203 44.361328 10.033203 z M 39.621094 10.337891 C 39.070094 10.372891 38.6525 10.849391 38.6875 11.400391 L 38.816406 13.396484 C 38.851406 13.927484 39.2905 14.332031 39.8125 14.332031 C 39.8335 14.332031 39.856906 14.331078 39.878906 14.330078 C 40.429906 14.295078 40.8475 13.820531 40.8125 13.269531 L 40.683594 11.273438 C 40.647594 10.721438 40.178094 10.318891 39.621094 10.337891 z M 34.882812 10.642578 C 34.331812 10.677578 33.914219 11.153078 33.949219 11.705078 L 34.076172 13.701172 C 34.110172 14.230172 34.551219 14.638672 35.074219 14.638672 C 35.095219 14.638672 35.116672 14.637719 35.138672 14.636719 C 35.689672 14.601719 36.107266 14.124266 36.072266 13.572266 L 35.945312 11.576172 C 35.909312 11.025172 35.427813 10.627578 34.882812 10.642578 z M 30.142578 10.945312 C 29.591578 10.980313 29.173984 11.457766 29.208984 12.009766 L 29.337891 14.005859 C 29.372891 14.535859 29.811984 14.941406 30.333984 14.941406 C 30.354984 14.941406 30.376437 14.940453 30.398438 14.939453 C 30.949437 14.904453 31.367031 14.428953 31.332031 13.876953 L 31.205078 11.880859 C 31.169078 11.329859 30.687578 10.923313 30.142578 10.945312 z M 25.404297 11.251953 C 24.853297 11.286953 24.435703 11.762453 24.470703 12.314453 L 24.597656 14.310547 C 24.631656 14.840547 25.072703 15.246094 25.595703 15.246094 C 25.616703 15.246094 25.638156 15.245141 25.660156 15.244141 C 26.211156 15.209141 26.62875 14.733641 26.59375 14.181641 L 26.466797 12.185547 C 26.430797 11.634547 25.950297 11.234953 25.404297 11.251953 z M 20.664062 11.556641 C 20.113063 11.591641 19.695469 12.067141 19.730469 12.619141 L 19.857422 14.615234 C 19.891422 15.145234 20.332469 15.550781 20.855469 15.550781 C 20.876469 15.550781 20.897922 15.549828 20.919922 15.548828 C 21.470922 15.513828 21.888516 15.038328 21.853516 14.486328 L 21.726562 12.490234 C 21.690562 11.939234 21.211063 11.531641 20.664062 11.556641 z M 8.2988281 11.888672 C 8.3442031 11.897422 8.3867813 11.921937 8.4257812 11.960938 L 14.105469 17.564453 C 14.677469 18.128453 15 18.898172 15 19.701172 L 15 52.613281 C 15 52.850281 14.700688 52.955531 14.554688 52.769531 L 9.359375 46.177734 C 8.227375 44.722734 8 43.915937 8 43.085938 L 8 12.138672 C 8 12.028672 8.0513438 11.950203 8.1523438 11.908203 C 8.2038437 11.887203 8.2534531 11.879922 8.2988281 11.888672 z M 54.244141 16.679688 C 54.863141 16.626687 55.235453 16.833531 55.439453 17.019531 C 55.811453 17.360531 56 17.943906 56 18.753906 L 56 51.972656 C 56 53.029656 55.172188 53.908703 54.117188 53.970703 L 19.347656 55.976562 C 18.548656 55.954563 17.959938 55.819844 17.585938 55.464844 C 17.197937 55.096844 17 54.512516 17 53.728516 L 17 21.158203 C 17 19.937203 17.308547 19.100516 18.810547 18.978516 L 54.244141 16.679688 z M 49.037109 22 C 49.000109 22 48.962781 22.001906 48.925781 22.003906 L 42.660156 22.351562 C 42.629156 22.353562 42.597406 22.356375 42.566406 22.359375 C 40.693406 22.551375 38.703125 24.003453 38.703125 26.314453 C 38.703125 27.354453 39.500109 28.220641 40.537109 28.306641 L 41.482422 28.386719 L 41.482422 32.980469 L 35.554688 23.837891 C 35.184688 23.266891 34.551953 22.925781 33.876953 22.925781 C 33.838953 22.925781 33.801672 22.925734 33.763672 22.927734 L 26.564453 23.333984 C 25.694453 23.397984 22.964844 23.893172 22.964844 27.701172 C 22.964844 28.806172 23.859844 29.701172 24.964844 29.701172 L 25.742188 29.701172 L 25.742188 45.380859 C 25.650188 45.404859 25.570812 45.425406 25.507812 45.441406 C 24.909813 45.596406 22.964844 46.308047 22.964844 48.998047 C 22.964844 49.546047 23.188938 50.070266 23.585938 50.447266 C 23.956937 50.804266 24.450891 51 24.962891 51 C 24.995891 51 25.0295 50.998094 25.0625 50.996094 C 25.2525 50.986094 29.743 50.761609 31.875 50.599609 C 35.178 50.347609 36.161703 48.069391 36.220703 46.900391 C 36.269703 45.916391 35.595859 45.04475 34.630859 44.84375 L 33.443359 44.595703 L 33.443359 38.96875 C 35.511359 42.27375 37.886375 46.056953 38.984375 47.751953 C 40.284375 49.757953 41.628391 50.537109 43.775391 50.537109 C 45.185391 50.537109 46.528812 50.150203 48.132812 49.283203 C 48.778813 48.934203 49.181641 48.259391 49.181641 47.525391 L 49.181641 27.589844 C 51.037641 26.731844 51.037109 24.698 51.037109 24 C 51.037109 23.45 50.812109 22.924875 50.412109 22.546875 C 50.039109 22.194875 49.547109 22 49.037109 22 z M 49.037109 24 C 49.037109 24.81 49.00025 25.573703 48.15625 25.845703 C 47.41725 26.083703 47.181641 26.095703 47.181641 26.095703 L 47.181641 47.523438 C 45.907641 48.212438 44.871391 48.537109 43.775391 48.537109 C 42.440391 48.537109 41.680062 48.229109 40.664062 46.662109 C 38.505063 43.328109 31.445312 31.986328 31.445312 31.986328 L 31.445312 46.222656 L 34.222656 46.800781 C 34.222656 46.800781 34.142609 48.422422 31.724609 48.607422 C 29.593609 48.768422 24.962891 49 24.962891 49 C 24.962891 48.421 25.081859 47.619859 26.005859 47.380859 C 26.440859 47.268859 27.740234 46.917969 27.740234 46.917969 L 27.740234 27.703125 L 24.962891 27.703125 C 24.962891 26.430125 25.328781 25.431031 26.675781 25.332031 L 33.875 24.927734 L 43.482422 39.742188 L 43.482422 26.546875 L 40.703125 26.314453 C 40.703125 25.157453 41.815484 24.445656 42.771484 24.347656 L 49.037109 24 z"/></svg>