<svg xmlns="http://www.w3.org/2000/svg" viewBox="0 0 16 16" width="16px" height="16px">
    <path d="M10.5 1L2.5 1.5L1.5 2.5L1.5 11.5L2 12.5L3.5 14.5L4.5 15L14 14.5L15 13.5L15 4.5L14.5 3.5L11.960938 1.453125L10.5 1zM11 2L12.5 3L5 3.5L3 3L3.5 2.5L11 2zM13.5 4L14 5L14 13L13.5 13.5L5 14L4 13.5L4 5.5L5 4.5L13.5 4zM12.480469 5.5L10.597656 5.609375C10.324656 5.636375 10.108109 5.8542969 10.162109 6.1542969L10.871094 6.2363281L10.871094 9.9941406L8.0917969 5.7460938L6.0742188 5.8828125C5.6922187 5.9098125 5.5563281 6.2628125 5.6113281 6.5078125L6.2929688 6.5625L6.2929688 11.927734L5.8027344 12.064453C5.6117344 12.119453 5.5573281 12.391 5.6113281 12.5L7.4921875 12.390625C8.1741875 12.390625 8.1738281 11.900391 8.1738281 11.900391L7.328125 11.710938L7.328125 7.6523438L10.001953 11.845703C10.327953 12.254703 10.437047 12.390625 10.873047 12.390625C11.145047 12.390625 11.471172 12.282797 11.826172 12.091797L11.826172 6.0996094L12.234375 6.0175781C12.480375 5.9905781 12.534469 5.745 12.480469 5.5z" stroke="#FFFFFF" />
</svg>