<?xml version="1.0" encoding="UTF-8"?>
<svg xmlns="http://www.w3.org/2000/svg" xmlns:xlink="http://www.w3.org/1999/xlink" id="Layer_1" viewBox="0 0 600 600">
  <defs>
    <style>.cls-1{fill:none;}.cls-2{fill:url(#linear-gradient);}.cls-3{clip-path:url(#clippath);}.cls-4{fill:#05b460;}.cls-5{fill:#1b1464;}.cls-6{clip-path:url(#clippath-1);}.cls-7{clip-path:url(#clippath-4);}.cls-8{clip-path:url(#clippath-3);}.cls-9{clip-path:url(#clippath-2);}.cls-10{clip-path:url(#clippath-7);}.cls-11{clip-path:url(#clippath-8);}.cls-12{clip-path:url(#clippath-6);}.cls-13{clip-path:url(#clippath-5);}.cls-14{clip-path:url(#clippath-9);}.cls-15{clip-path:url(#clippath-20);}.cls-16{clip-path:url(#clippath-21);}.cls-17{clip-path:url(#clippath-14);}.cls-18{clip-path:url(#clippath-13);}.cls-19{clip-path:url(#clippath-12);}.cls-20{clip-path:url(#clippath-10);}.cls-21{clip-path:url(#clippath-15);}.cls-22{clip-path:url(#clippath-17);}.cls-23{clip-path:url(#clippath-16);}.cls-24{clip-path:url(#clippath-19);}.cls-25{clip-path:url(#clippath-11);}.cls-26{clip-path:url(#clippath-18);}.cls-27{fill:url(#linear-gradient-2);}.cls-28{opacity:.3;}.cls-29{isolation:isolate;}</style>
    <clipPath id="clippath">
      <path class="cls-1" d="M501.38,246.77v-96.19c0-9.38-4.99-18.05-13.1-22.76l-69.73-40.53c-11.7-6.8-26.37,1.64-26.37,15.17v102.48l-49.53-28.53c-26.5-15.26-59.13-15.22-85.59,.1l-49.25,28.52h0V102.46c0-13.53-14.67-21.97-26.37-15.17l-69.73,40.53c-8.11,4.71-13.1,13.38-13.1,22.76v96.28c0,13.49,6.89,26.04,18.26,33.29l63.48,40.47c16.51,10.52,37.82,9.68,53.44-2.12l44.13-33.32c12.13-9.16,31.98-9.16,44.11,0l44.12,33.3c15.63,11.79,36.93,12.63,53.44,2.11l63.55-40.53c11.36-7.25,18.24-19.8,18.24-33.28"/>
    </clipPath>
    <linearGradient id="linear-gradient" x1="-2278.4" y1="3962.05" x2="-2277.4" y2="3962.05" gradientTransform="translate(1546676.99 889256.1) rotate(90) scale(390.3)" gradientUnits="userSpaceOnUse">
      <stop offset="0" stop-color="#fff500"/>
      <stop offset=".34" stop-color="#fff500"/>
      <stop offset=".34" stop-color="#fdf400"/>
      <stop offset=".42" stop-color="#92df1c"/>
      <stop offset=".48" stop-color="#43d030"/>
      <stop offset=".52" stop-color="#12c63d"/>
      <stop offset=".54" stop-color="#00c342"/>
      <stop offset=".81" stop-color="#135090"/>
      <stop offset="1" stop-color="#135090"/>
    </linearGradient>
    <clipPath id="clippath-1">
      <path class="cls-1" d="M300.06,220.52c-11.56,0-23.13,3.24-33.27,9.72l-58.98,37.68v34.33c0,10.58,8.69,17.89,17.94,17.89,3.61,0,7.31-1.11,10.61-3.58l40.13-30.31s.07-.05,.1-.07l1.33-1.01c6.07-4.58,14.06-6.87,22.06-6.87s15.99,2.29,22.05,6.87l40.2,30.34,3.94,2.97c.85,.64,1.72,1.25,2.61,1.83l-5.05-3.81h0c3.32,2.51,7.05,3.64,10.69,3.64,9.25,0,17.94-7.31,17.94-17.89v-34.25l-58.99-37.74c-10.15-6.49-21.73-9.74-33.3-9.74m-38.97-46.19c-.58,.3-1.16,.6-1.73,.91l-51.55,29.91v.1l53.28-30.92"/>
    </clipPath>
    <clipPath id="clippath-2">
      <polyline class="cls-1" points="96.65 148.84 503.65 148.84 503.65 305.84 96.65 305.84 96.65 148.84"/>
    </clipPath>
    <clipPath id="clippath-3">
      <polyline class="cls-1" points="373.72 194.31 392.36 205.14 392.36 205.04 392.19 204.94 392.19 204.94 373.72 194.31"/>
    </clipPath>
    <clipPath id="clippath-4">
      <polyline class="cls-1" points="373.68 194.28 392.36 205.14 392.36 205.14 373.72 194.31 373.68 194.28"/>
    </clipPath>
    <clipPath id="clippath-5">
      <path class="cls-1" d="M299.95,165c-13.33,0-26.66,3.11-38.86,9.33l-53.28,30.92v62.67l58.98-37.68c10.14-6.48,21.71-9.72,33.27-9.72s23.15,3.25,33.3,9.74l58.99,37.74v-62.86l-18.68-10.86-31.02-17.87c-13.22-7.61-27.96-11.42-42.71-11.42"/>
    </clipPath>
    <linearGradient id="linear-gradient-2" x1="-2285.04" y1="3962.59" x2="-2284.04" y2="3962.59" gradientTransform="translate(4296681.71 2477128.65) rotate(90) scale(1084.27)" gradientUnits="userSpaceOnUse">
      <stop offset="0" stop-color="#f8ff5d"/>
      <stop offset=".49" stop-color="#ffcb00"/>
      <stop offset="1" stop-color="#06cd00"/>
    </linearGradient>
    <clipPath id="clippath-6">
      <path class="cls-1" d="M98.62,150.32v0"/>
    </clipPath>
    <clipPath id="clippath-7">
      <path class="cls-1" d="M116.62,279.98c.09,.06,.17,.11,.26,.17l9.01,5.74s.02,.01,.02,.02c.01,0,.03,.02,.04,.02l-9.33-5.95"/>
    </clipPath>
    <clipPath id="clippath-8">
      <path class="cls-1" d="M190.23,84.89c-2.55,0-5.17,.57-7.67,1.8l-72.16,41.94c-7.26,4.81-11.7,12.93-11.78,21.69v96.84h0v-9.75c0,10.45,8.58,17.92,17.92,17.92,2.99,0,6.06-.77,8.96-2.45l82.31-47.84V102.2c-.14-10.11-8.49-17.31-17.58-17.31"/>
    </clipPath>
    <clipPath id="clippath-9">
      <path class="cls-1" d="M236.33,316.58l-.91,.69h0l.91-.69m-28.52-111.54h0v63.14h0v-63.14h0"/>
    </clipPath>
    <clipPath id="clippath-10">
      <path class="cls-1" d="M235.42,317.27h0l-1.79,1.35c.05-.04,.11-.08,.16-.12l1.63-1.23m-27.61-112.23l-82.31,47.84c-2.9,1.68-5.97,2.45-8.96,2.45-9.34,0-17.92-7.47-17.92-17.92v9.75c.1,13.27,6.87,25.59,18,32.81l9.33,5.95c8.42,5.26,18.32,8.3,28.09,8.3,7.89,0,15.69-1.98,22.56-6.37l31.21-19.68h0v-63.13"/>
    </clipPath>
    <clipPath id="clippath-11">
      <polyline class="cls-1" points="162.27 309.09 180.35 320.61 180.36 320.61 175.59 317.58 162.27 309.09"/>
    </clipPath>
    <clipPath id="clippath-12">
      <polyline class="cls-1" points="129.06 287.91 162.27 309.09 175.59 317.58 171.41 314.91 129.06 287.91"/>
    </clipPath>
    <clipPath id="clippath-13">
      <path class="cls-1" d="M125.88,285.89l3.17,2.02,42.36,27-45.47-28.99s-.03-.02-.04-.02c0,0-.02-.01-.02-.02"/>
    </clipPath>
    <clipPath id="clippath-14">
      <path class="cls-1" d="M207.81,268.18v34.12c0,10.58,8.69,17.89,17.94,17.89,3.27,0,6.62-.91,9.67-2.92l.91-.69,.1-.08s-.05,.04-.07,.06c-3.3,2.47-7,3.58-10.61,3.58-9.25,0-17.94-7.31-17.94-17.89v-34.06h0"/>
    </clipPath>
    <clipPath id="clippath-15">
      <path class="cls-1" d="M207.8,268.17l-31.21,19.68c-6.86,4.39-14.67,6.37-22.56,6.37-9.77,0-19.68-3.04-28.09-8.3l54.41,34.69c7.71,4.91,16.46,7.35,25.19,7.35,9.91,0,19.79-3.13,28.09-9.34l1.79-1.35c-3.06,2.01-6.4,2.92-9.67,2.92-9.25,0-17.94-7.31-17.94-17.89v-34.12h0"/>
    </clipPath>
    <clipPath id="clippath-16">
      <path class="cls-1" d="M409.77,84.89c-8.4,0-16.17,6.16-17.41,15.08v202.28h0v-97.21l82.31,47.84c2.9,1.68,5.97,2.45,8.96,2.45,8.58,0,16.51-6.29,17.75-15.41v-89.35c0-9.38-4.99-18.05-13.1-22.76l-69.73-40.53c-2.84-1.65-5.85-2.4-8.79-2.4"/>
    </clipPath>
    <clipPath id="clippath-17">
      <path class="cls-1" d="M392.36,205.04v97.21h0v-34.06h0l31.21,19.67c6.86,4.39,14.67,6.37,22.56,6.37,8.56,0,17.21-2.33,24.88-6.44l12.13-7.73c11.36-7.25,18.24-19.8,18.24-33.28v-6.85c-1.24,9.11-9.17,15.41-17.75,15.41-2.99,0-6.06-.77-8.96-2.45l-82.31-47.84"/>
    </clipPath>
    <clipPath id="clippath-18">
      <path class="cls-1" d="M363.73,316.5l5.05,3.81h.01l-5.06-3.82h0"/>
    </clipPath>
    <clipPath id="clippath-19">
      <path class="cls-1" d="M392.37,268.17h0v34.07h0c0,10.58-8.69,17.89-17.94,17.89-3.64,0-7.37-1.13-10.69-3.64l5.06,3.82c7.75,5.06,16.67,7.61,25.61,7.61s17.49-2.44,25.2-7.35l51.42-32.79c-7.67,4.11-16.33,6.44-24.88,6.44-7.89,0-15.69-1.98-22.56-6.37l-31.21-19.68"/>
    </clipPath>
    <clipPath id="clippath-20">
      <rect class="cls-1" x="-15.59" y="-2601.86" width="631.18" height="619.94"/>
    </clipPath>
    <clipPath id="clippath-21">
      <rect class="cls-1" x="-208.75" y="-2612.03" width="1100.94" height="656.31"/>
    </clipPath>
  </defs>
  <path class="cls-4" d="M501.38,246.77v-96.19c0-9.38-4.99-18.05-13.1-22.76l-69.73-40.53c-11.7-6.8-26.37,1.64-26.37,15.17v102.48l-49.53-28.53c-26.5-15.26-59.13-15.22-85.59,.1l-49.25,28.52h0V102.46c0-13.53-14.67-21.97-26.37-15.17l-69.73,40.53c-8.11,4.71-13.1,13.38-13.1,22.76v96.28c0,13.49,6.89,26.04,18.26,33.29l63.48,40.47c16.51,10.52,37.82,9.68,53.44-2.12l44.13-33.32c12.13-9.16,31.98-9.16,44.11,0l44.12,33.3c15.63,11.79,36.93,12.63,53.44,2.11l63.55-40.53c11.36-7.25,18.24-19.8,18.24-33.28h0Z"/>
  <g class="cls-3">
    <g>
      <path class="cls-2" d="M362.24,315.51l3.92,2.96h.01s-3.94-2.96-3.94-2.96m-85.65-29.33s-.07,.05-.1,.07l-40.13,30.31s.05-.04,.07-.06l40.16-30.33m-17.23-110.94c-.77,.42-1.54,.84-2.3,1.28l-49.25,28.52h0v.11l51.55-29.91"/>
      <g class="cls-6"/>
      <g class="cls-9">
        <g>
          <g class="cls-8"/>
          <g class="cls-7"/>
          <g class="cls-13"/>
        </g>
      </g>
      <path class="cls-27" d="M207.81,102.2v102.84h0V102.2m-25.25-15.51c-.38,.18-.75,.38-1.12,.6l-22.68,13.18-47.27,27.48c-.37,.22-.74,.45-1.1,.69l72.16-41.94"/>
      <g class="cls-12"/>
      <g class="cls-10"/>
      <g class="cls-11"/>
      <g class="cls-14"/>
      <g class="cls-20"/>
      <g class="cls-25"/>
      <g class="cls-19"/>
      <g class="cls-18"/>
      <g class="cls-17"/>
      <g class="cls-21"/>
      <g class="cls-23"/>
      <g class="cls-22"/>
      <g class="cls-26"/>
      <g class="cls-24"/>
    </g>
  </g>
  <g>
    <path class="cls-5" d="M141,403.12c5.18,1.86,7.78,4.33,7.78,7.43,0,1.01-.46,2.9-1.39,5.69l-22.28,64.41c-.16,.54-.43,1.2-.81,1.97-.39,.77-1.41,1.8-3.08,3.08s-3.64,1.92-5.92,1.92-4.26-.64-5.92-1.92c-1.67-1.28-2.77-2.53-3.31-3.77l-13.58-40.04c-8.59,25.38-12.96,38.3-13.12,38.76-.16,.46-.5,1.12-1.04,1.97s-1.16,1.62-1.86,2.32c-1.78,1.78-3.91,2.67-6.38,2.67s-4.51-.58-6.09-1.74c-1.59-1.16-2.65-2.32-3.19-3.48l-.81-1.74-22.4-64.41c-.85-2.55-1.28-4.45-1.28-5.69,0-3.09,2.59-5.53,7.78-7.31,2.24-.77,4.27-1.16,6.09-1.16s3.21,.62,4.18,1.86,1.84,3.13,2.61,5.69l12.77,38.76,12.65-38.18c1.08-3.25,3.06-5.49,5.92-6.73,1.24-.54,2.84-.81,4.82-.81s3.81,.64,5.51,1.92c1.7,1.28,2.79,2.54,3.25,3.77l13.35,40.27,12.77-39c.62-1.78,1.12-3.09,1.51-3.95,.39-.85,1.1-1.68,2.15-2.5s2.34-1.22,3.89-1.22,3.37,.39,5.46,1.16h-.03Z"/>
    <path class="cls-5" d="M205.99,449.83c0,4.76-1.18,8.28-3.54,10.56s-4.97,3.42-7.83,3.42h-27.51c0,2.17,1.28,3.99,3.83,5.46s5.11,2.21,7.66,2.21c4.49,0,8.01-.46,10.56-1.39l1.28-.46c1.86-.85,3.4-1.28,4.64-1.28,2.48,0,4.6,1.74,6.38,5.22,1,2.09,1.51,3.87,1.51,5.34,0,6.89-8.24,10.33-24.72,10.33-5.73,0-10.81-.99-15.26-2.96s-7.91-4.58-10.39-7.83c-4.88-6.27-7.31-13.27-7.31-21.01,0-9.75,3.15-17.54,9.46-23.39,6.31-5.84,14.18-8.76,23.62-8.76,10.75,0,18.65,3.79,23.68,11.37,2.63,4.02,3.95,8.42,3.95,13.17h-.01Zm-24.49,3.42c2.94,0,4.41-1.24,4.41-3.71,0-1.78-.68-3.21-2.03-4.29-1.35-1.08-3.29-1.62-5.8-1.62s-5.01,1.03-7.49,3.08c-2.48,2.05-3.71,4.24-3.71,6.56h14.62v-.02Z"/>
    <path class="cls-5" d="M253.23,433.06c.46-4.33,3.52-6.5,9.17-6.5,3.02,0,5.26,.23,6.73,.7,1.47,.46,2.5,1.28,3.08,2.44s.93,2.19,1.04,3.08c.12,.89,.17,2.22,.17,4v40.62c0,1.78-.06,3.12-.17,4-.12,.89-.45,1.92-.99,3.08-1.08,2.01-3.73,3.02-7.95,3.02s-7.04-.52-8.47-1.57c-1.43-1.04-2.26-2.57-2.5-4.58-2.86,4.1-7.64,6.15-14.33,6.15s-12.9-3.06-18.63-9.17c-5.73-6.11-8.59-13.21-8.59-21.3s2.88-15.16,8.65-21.24c5.76-6.07,12.09-9.11,18.98-9.11,2.63,0,5.03,.46,7.2,1.39,2.17,.93,3.67,1.8,4.53,2.61,.85,.81,1.55,1.61,2.09,2.38h0Zm-21.12,24.14c0,2.55,1,4.86,3.02,6.91,2.01,2.05,4.45,3.08,7.31,3.08s5.24-1.04,7.14-3.13,2.84-4.39,2.84-6.91-.91-4.85-2.73-7.02c-1.82-2.17-4.26-3.25-7.31-3.25s-5.53,1.08-7.43,3.25-2.84,4.53-2.84,7.08h0Z"/>
    <path class="cls-5" d="M342.6,427.95c4.02,2.4,6.04,4.95,6.04,7.66,0,1.55-.77,3.68-2.32,6.38l-24.02,41.2c-.77,1.32-2.01,2.5-3.71,3.54-1.7,1.04-3.39,1.57-5.05,1.57s-3.25-.41-4.76-1.22-2.57-1.64-3.19-2.5l-1.04-1.28-24.14-41.32c-1.55-2.55-2.32-4.64-2.32-6.27,0-2.79,2.01-5.38,6.04-7.78,2.94-1.7,5.26-2.55,6.96-2.55s3.04,.52,4,1.57c.97,1.04,1.99,2.61,3.08,4.7l15.2,29.25,15.2-29.25c.85-1.47,1.49-2.53,1.92-3.19,.42-.66,1.1-1.31,2.03-1.97s2.17-.99,3.71-.99,3.67,.81,6.38,2.44h-.01Z"/>
    <path class="cls-5" d="M374.1,415.24c-.58,1.12-1.61,1.92-3.08,2.38s-3.42,.7-5.86,.7-4.39-.23-5.86-.7c-1.47-.46-2.5-1.28-3.08-2.44s-.93-2.18-1.04-3.08c-.12-.89-.17-2.22-.17-4s.06-3.11,.17-4c.12-.89,.44-1.88,.99-2.96,1.08-2.09,4.1-3.13,9.05-3.13s7.81,1.04,8.82,3.13c.62,1.16,.99,2.19,1.1,3.08,.12,.89,.17,2.23,.17,4s-.06,3.12-.17,4c-.12,.89-.46,1.9-1.04,3.02h0Zm-19.09,21.53c0-1.78,.06-3.11,.17-4,.12-.89,.44-1.92,.99-3.08,1.08-2.01,4.1-3.02,9.05-3.02,3.71,0,6.34,.66,7.89,1.97,1.31,1.08,2.01,2.75,2.09,4.99,.08,.77,.12,1.9,.12,3.37v40.62c0,1.78-.06,3.12-.17,4-.12,.89-.48,1.91-1.1,3.08-1.01,2.01-3.99,3.02-8.94,3.02s-7.85-1.04-8.94-3.13c-.54-1.16-.87-2.17-.99-3.02-.12-.85-.17-2.21-.17-4.06v-40.74h0Z"/>
    <path class="cls-5" d="M424.3,433.06c.46-4.33,3.52-6.5,9.17-6.5,3.02,0,5.26,.23,6.73,.7,1.47,.46,2.5,1.28,3.08,2.44s.93,2.19,1.04,3.08c.12,.89,.17,2.22,.17,4v40.62c0,1.78-.06,3.12-.17,4-.12,.89-.45,1.92-.99,3.08-1.08,2.01-3.73,3.02-7.95,3.02s-7.04-.52-8.47-1.57c-1.43-1.04-2.26-2.57-2.5-4.58-2.86,4.1-7.64,6.15-14.33,6.15s-12.9-3.06-18.63-9.17c-5.73-6.11-8.59-13.21-8.59-21.3s2.88-15.16,8.65-21.24c5.76-6.07,12.09-9.11,18.98-9.11,2.63,0,5.03,.46,7.2,1.39,2.17,.93,3.67,1.8,4.53,2.61,.85,.81,1.55,1.61,2.09,2.38h-.01Zm-21.12,24.14c0,2.55,1,4.86,3.02,6.91,2.01,2.05,4.45,3.08,7.31,3.08s5.24-1.04,7.14-3.13c1.9-2.09,2.84-4.39,2.84-6.91s-.91-4.85-2.73-7.02c-1.82-2.17-4.26-3.25-7.31-3.25s-5.53,1.08-7.43,3.25-2.84,4.53-2.84,7.08h0Z"/>
    <path class="cls-5" d="M489.29,447.1l-7.54-.46v16.02c0,2.09,.33,3.6,.99,4.53s1.9,1.39,3.71,1.39,3.21,.06,4.18,.17c.97,.12,1.99,.48,3.08,1.1,1.78,1.01,2.67,3.6,2.67,7.78,0,4.88-1.08,7.85-3.25,8.94-1.16,.54-2.19,.87-3.08,.99-.89,.12-2.19,.17-3.89,.17-8.05,0-14.16-1.82-18.34-5.46-4.18-3.64-6.27-9.79-6.27-18.45v-17.18c-1.47,.23-3.06,.35-4.76,.35s-3.12-.66-4.24-1.97-1.68-3.56-1.68-6.73,.19-5.47,.58-6.91c.39-1.43,.93-2.46,1.62-3.08,1.24-1,2.79-1.51,4.64-1.51l3.83,.46v-11.95c0-1.78,.06-3.09,.17-3.95,.12-.85,.48-1.78,1.1-2.79,1-1.93,3.98-2.9,8.94-2.9,5.26,0,8.39,1.43,9.4,4.29,.39,1.24,.58,3.21,.58,5.92v11.37c3.4-.31,5.98-.46,7.72-.46s3.06,.06,3.95,.17c.89,.12,1.92,.48,3.08,1.1,2.01,1.01,3.02,3.99,3.02,8.94s-1.04,7.85-3.13,8.94c-1.16,.54-2.19,.87-3.08,.99-.89,.12-2.22,.17-4,.17h0Z"/>
    <path class="cls-5" d="M562.53,449.83c0,4.76-1.18,8.28-3.54,10.56s-4.97,3.42-7.83,3.42h-27.51c0,2.17,1.28,3.99,3.83,5.46s5.11,2.21,7.66,2.21c4.49,0,8.01-.46,10.56-1.39l1.28-.46c1.86-.85,3.4-1.28,4.64-1.28,2.48,0,4.6,1.74,6.38,5.22,1,2.09,1.51,3.87,1.51,5.34,0,6.89-8.24,10.33-24.72,10.33-5.73,0-10.81-.99-15.26-2.96s-7.91-4.58-10.39-7.83c-4.88-6.27-7.31-13.27-7.31-21.01,0-9.75,3.15-17.54,9.46-23.39,6.31-5.84,14.18-8.76,23.62-8.76,10.75,0,18.65,3.79,23.68,11.37,2.63,4.02,3.95,8.42,3.95,13.17h-.01Zm-24.49,3.42c2.94,0,4.41-1.24,4.41-3.71,0-1.78-.68-3.21-2.03-4.29-1.35-1.08-3.29-1.62-5.8-1.62s-5.01,1.03-7.49,3.08-3.71,4.24-3.71,6.56h14.62v-.02Z"/>
  </g>
  <g class="cls-15">
    <g class="cls-16">
      <g class="cls-28"/>
    </g>
  </g>
</svg>
