<svg width="14" height="13" viewBox="0 0 14 13" fill="none" xmlns="http://www.w3.org/2000/svg">
<path fill-rule="evenodd" clip-rule="evenodd" d="M11.9207 1.42089C11.9548 1.58459 11.9241 1.75549 11.8353 1.89603C11.7465 2.03656 11.6068 2.13524 11.447 2.17038L7.61755 3.01083V11.6587H9.67331C9.83687 11.6587 9.99374 11.7252 10.1094 11.8437C10.2251 11.9621 10.29 12.1228 10.29 12.2903C10.29 12.4578 10.2251 12.6184 10.1094 12.7369C9.99374 12.8553 9.83687 12.9219 9.67331 12.9219H4.32834C4.16477 12.9219 4.00791 12.8553 3.89225 12.7369C3.77659 12.6184 3.71161 12.4578 3.71161 12.2903C3.71161 12.1228 3.77659 11.9621 3.89225 11.8437C4.00791 11.7252 4.16477 11.6587 4.32834 11.6587H6.3841V3.282L2.81284 4.06518C2.73263 4.08551 2.64924 4.08912 2.56764 4.07581C2.48604 4.0625 2.40788 4.03253 2.33781 3.98768C2.26774 3.94283 2.20719 3.88401 2.15974 3.81473C2.1123 3.74545 2.07893 3.66711 2.06162 3.58436C2.04432 3.50161 2.04342 3.41615 2.059 3.33304C2.07457 3.24993 2.10629 3.17088 2.15228 3.10057C2.19827 3.03027 2.25758 2.97014 2.3267 2.92377C2.39582 2.87739 2.47333 2.84571 2.55463 2.83061L11.1888 0.935819C11.3487 0.900841 11.5155 0.932283 11.6528 1.02324C11.79 1.11419 11.8863 1.25722 11.9207 1.42089ZM9.99647 7.08422L10.0022 7.09938C10.091 7.32659 10.2442 7.52136 10.442 7.65855C10.6399 7.79575 10.8734 7.86907 11.1123 7.86907C11.3513 7.86907 11.5848 7.79575 11.7826 7.65855C11.9805 7.52136 12.1337 7.32659 12.2224 7.09938L12.2282 7.08422L11.1123 4.79868L9.99647 7.08422ZM11.1123 3.23736C10.7341 3.23736 10.3887 3.45632 10.2201 3.80159L8.80989 6.68926C8.75791 6.79568 8.72855 6.91216 8.72373 7.03104C8.71891 7.14993 8.73875 7.26851 8.78193 7.37897L8.85594 7.56929C9.03616 8.03105 9.34739 8.42691 9.74944 8.70575C10.1515 8.9846 10.6259 9.13364 11.1115 9.13364C11.5971 9.13364 12.0715 8.9846 12.4736 8.70575C12.8756 8.42691 13.1869 8.03105 13.3671 7.56929L13.4411 7.37897C13.4843 7.26851 13.5041 7.14993 13.4993 7.03104C13.4945 6.91216 13.4651 6.79568 13.4131 6.68926L12.0037 3.80328C11.9213 3.6333 11.7942 3.49027 11.6367 3.39028C11.4793 3.2903 11.2976 3.23734 11.1123 3.23736ZM1.77345 8.76848L1.7792 8.78364C1.86795 9.01085 2.02114 9.20562 2.21901 9.34282C2.41688 9.48001 2.65036 9.55334 2.88931 9.55334C3.12826 9.55334 3.36174 9.48001 3.55961 9.34282C3.75748 9.20562 3.91067 9.01085 3.99942 8.78364L4.00517 8.76848L2.88931 6.48294L1.77345 8.76848ZM2.88931 4.92163C2.51105 4.92163 2.16568 5.14058 1.99711 5.48586L0.586863 8.37352C0.53489 8.47994 0.505527 8.59643 0.500708 8.71531C0.495889 8.83419 0.515723 8.95277 0.558904 9.06323L0.632912 9.25355C0.813136 9.71532 1.12436 10.1112 1.52642 10.39C1.92847 10.6689 2.40291 10.8179 2.88849 10.8179C3.37407 10.8179 3.8485 10.6689 4.25056 10.39C4.65261 10.1112 4.96384 9.71532 5.14406 9.25355L5.21807 9.06323C5.26125 8.95277 5.28109 8.83419 5.27627 8.71531C5.27145 8.59643 5.24208 8.47994 5.19011 8.37352L3.78151 5.4867C3.69894 5.31675 3.57167 5.1738 3.41403 5.07396C3.25639 4.97412 3.07466 4.92136 2.88931 4.92163Z" fill="#CCCCCC"/>
</svg>
