<svg width="17" height="16" viewBox="0 0 17 16" fill="none" xmlns="http://www.w3.org/2000/svg">
<path d="M5 10H6.33333C6.33333 10.72 7.24667 11.3333 8.33333 11.3333C9.42 11.3333 10.3333 10.72 10.3333 10C10.3333 9.26667 9.64 9 8.17333 8.64667C6.76 8.29333 5 7.85333 5 6C5 4.80667 5.98 3.79333 7.33333 3.45333V2H9.33333V3.45333C10.6867 3.79333 11.6667 4.80667 11.6667 6H10.3333C10.3333 5.28 9.42 4.66667 8.33333 4.66667C7.24667 4.66667 6.33333 5.28 6.33333 6C6.33333 6.73333 7.02667 7 8.49333 7.35333C9.90667 7.70667 11.6667 8.14667 11.6667 10C11.6667 11.1933 10.6867 12.2067 9.33333 12.5467V14H7.33333V12.5467C5.98 12.2067 5 11.1933 5 10Z" fill="#1F46C1"/>
</svg>
