<svg width="32" height="32" viewBox="0 0 32 32" fill="none" xmlns="http://www.w3.org/2000/svg">
<path d="M13.7331 8.98663C13.8224 9.08293 13.8919 9.19587 13.9376 9.31902C13.9832 9.44217 14.0042 9.5731 13.9992 9.70434C13.9943 9.83559 13.9635 9.96457 13.9087 10.0839C13.8539 10.2033 13.7761 10.3107 13.6798 10.4L9.80247 14L13.6798 17.6C13.7761 17.6893 13.8539 17.7967 13.9087 17.916C13.9635 18.0354 13.9942 18.1643 13.9992 18.2956C14.0041 18.4268 13.9832 18.5578 13.9375 18.6809C13.8919 18.804 13.8224 18.917 13.7331 19.0133C13.6438 19.1096 13.5364 19.1874 13.4171 19.2422C13.2977 19.297 13.1688 19.3277 13.0375 19.3327C12.9063 19.3376 12.7753 19.3167 12.6522 19.271C12.5291 19.2254 12.4161 19.1559 12.3198 19.0666L7.65314 14.7333C7.55217 14.6397 7.47162 14.5262 7.41653 14.4C7.36144 14.2739 7.33301 14.1377 7.33301 14C7.33301 13.8623 7.36144 13.7261 7.41653 13.5999C7.47162 13.4737 7.55217 13.3602 7.65314 13.2666L12.3198 8.9333C12.4161 8.84399 12.529 8.77452 12.6522 8.72887C12.7753 8.68321 12.9063 8.66226 13.0375 8.66722C13.1688 8.67217 13.2977 8.70293 13.4171 8.75773C13.5365 8.81254 13.6438 8.89032 13.7331 8.98663ZM18.3198 10.4C18.2235 10.3107 18.1457 10.2033 18.0909 10.0839C18.0361 9.96456 18.0054 9.83558 18.0004 9.70434C17.9955 9.5731 18.0164 9.44217 18.0621 9.31903C18.1077 9.19588 18.1772 9.08293 18.2665 8.98663C18.3558 8.89033 18.4632 8.81256 18.5825 8.75776C18.7019 8.70296 18.8309 8.6722 18.9621 8.66725C19.0933 8.6623 19.2243 8.68325 19.3474 8.72889C19.4706 8.77454 19.5835 8.844 19.6798 8.9333L24.3465 13.2666C24.4474 13.3602 24.528 13.4737 24.5831 13.5999C24.6382 13.7261 24.6666 13.8623 24.6666 14C24.6666 14.1377 24.6382 14.2739 24.5831 14.4C24.528 14.5262 24.4474 14.6397 24.3465 14.7333L19.6798 19.0666C19.5835 19.1559 19.4706 19.2254 19.3474 19.271C19.2243 19.3167 19.0933 19.3376 18.9621 19.3327C18.8309 19.3277 18.7019 19.297 18.5825 19.2422C18.4632 19.1874 18.3558 19.1096 18.2665 19.0133C18.1772 18.917 18.1077 18.804 18.0621 18.6809C18.0164 18.5578 17.9955 18.4268 18.0004 18.2956C18.0054 18.1643 18.0361 18.0354 18.0909 17.916C18.1457 17.7967 18.2235 17.6893 18.3198 17.6L22.1971 14L18.3198 10.4Z" fill="#FF2210"/>
<path d="M2 5.66683C2 4.37883 3.04533 3.3335 4.33333 3.3335H27.6667C28.9547 3.3335 30 4.37883 30 5.66683V22.3335C30 22.9523 29.7542 23.5458 29.3166 23.9834C28.879 24.421 28.2855 24.6668 27.6667 24.6668H14.7467L9.98267 29.4308C9.71074 29.7017 9.36469 29.8861 8.98816 29.9606C8.61162 30.0351 8.22145 29.9965 7.86682 29.8497C7.51219 29.7028 7.20897 29.4542 6.99539 29.1353C6.78182 28.8164 6.66743 28.4413 6.66667 28.0575V24.6668H4.33333C3.71449 24.6668 3.121 24.421 2.68342 23.9834C2.24583 23.5458 2 22.9523 2 22.3335V5.66683ZM4.33333 5.3335C4.24493 5.3335 4.16014 5.36861 4.09763 5.43113C4.03512 5.49364 4 5.57842 4 5.66683V22.3335C4 22.5175 4.14933 22.6668 4.33333 22.6668H7.66667C7.93188 22.6668 8.18624 22.7722 8.37377 22.9597C8.56131 23.1473 8.66667 23.4016 8.66667 23.6668V27.9202L13.6267 22.9602C13.814 22.7726 14.0682 22.6671 14.3333 22.6668H27.6667C27.7551 22.6668 27.8399 22.6317 27.9024 22.5692C27.9649 22.5067 28 22.4219 28 22.3335V5.66683C28 5.57842 27.9649 5.49364 27.9024 5.43113C27.8399 5.36861 27.7551 5.3335 27.6667 5.3335H4.33333Z" fill="#FF2210"/>
</svg>
