<svg width="15" height="14" viewBox="0 0 15 14" fill="none" xmlns="http://www.w3.org/2000/svg">
<path class="fill-element" d="M6.38404 3.93156C6.42311 3.97369 6.45351 4.0231 6.47348 4.07698C6.49345 4.13086 6.50262 4.18814 6.50045 4.24556C6.49829 4.30298 6.48483 4.35941 6.46085 4.41163C6.43687 4.46384 6.40285 4.51083 6.36071 4.54989L4.66438 6.12489L6.36071 7.69989C6.40284 7.73896 6.43687 7.78594 6.46084 7.83816C6.48481 7.89038 6.49827 7.94681 6.50044 8.00423C6.5026 8.06164 6.49344 8.11893 6.47347 8.1728C6.4535 8.22668 6.42311 8.27609 6.38404 8.31823C6.34497 8.36036 6.29799 8.39438 6.24577 8.41836C6.19355 8.44233 6.13712 8.45579 6.07971 8.45795C6.02229 8.46012 5.96501 8.45096 5.91113 8.43099C5.85726 8.41101 5.80784 8.38063 5.76571 8.34156L3.72404 6.44573C3.67987 6.40477 3.64463 6.35514 3.62052 6.29993C3.59642 6.24472 3.58398 6.18513 3.58398 6.12489C3.58398 6.06465 3.59642 6.00506 3.62052 5.94986C3.64463 5.89465 3.67987 5.84501 3.72404 5.80406L5.76571 3.90823C5.80784 3.86915 5.85725 3.83876 5.91113 3.81879C5.96501 3.79881 6.02229 3.78965 6.07971 3.79182C6.13713 3.79398 6.19356 3.80744 6.24577 3.83142C6.29799 3.85539 6.34498 3.88942 6.38404 3.93156ZM8.39071 4.54989C8.34858 4.51082 8.31455 4.46384 8.29058 4.41162C8.2666 4.3594 8.25315 4.30298 8.25098 4.24556C8.24881 4.18814 8.25798 4.13086 8.27795 4.07698C8.29792 4.02311 8.32831 3.97369 8.36737 3.93156C8.40644 3.88943 8.45343 3.8554 8.50564 3.83143C8.55786 3.80745 8.61429 3.794 8.67171 3.79183C8.72913 3.78966 8.78641 3.79883 8.84028 3.8188C8.89416 3.83877 8.94358 3.86916 8.98571 3.90823L11.0274 5.80406C11.0715 5.84501 11.1068 5.89465 11.1309 5.94986C11.155 6.00506 11.1674 6.06465 11.1674 6.12489C11.1674 6.18513 11.155 6.24472 11.1309 6.29993C11.1068 6.35514 11.0715 6.40477 11.0274 6.44573L8.98571 8.34156C8.94358 8.38063 8.89416 8.41101 8.84028 8.43099C8.78641 8.45096 8.72913 8.46012 8.67171 8.45795C8.61429 8.45579 8.55786 8.44233 8.50564 8.41836C8.45343 8.39438 8.40644 8.36036 8.36737 8.31823C8.32831 8.27609 8.29792 8.22668 8.27795 8.1728C8.25798 8.11893 8.24881 8.06164 8.25098 8.00423C8.25315 7.94681 8.2666 7.89038 8.29058 7.83816C8.31455 7.78594 8.34858 7.73896 8.39071 7.69989L10.087 6.12489L8.39071 4.54989Z" fill="#CCCCCC"/>
<path class="fill-element" d="M1.25 2.47933C1.25 1.91583 1.70733 1.4585 2.27083 1.4585H12.4792C13.0427 1.4585 13.5 1.91583 13.5 2.47933V9.771C13.5 10.0417 13.3924 10.3014 13.201 10.4928C13.0096 10.6843 12.7499 10.7918 12.4792 10.7918H6.82667L4.74242 12.8761C4.62345 12.9946 4.47205 13.0752 4.30732 13.1079C4.14258 13.1405 3.97188 13.1236 3.81673 13.0593C3.66158 12.9951 3.52893 12.8863 3.43548 12.7468C3.34204 12.6072 3.292 12.4432 3.29167 12.2752V10.7918H2.27083C2.00009 10.7918 1.74044 10.6843 1.549 10.4928C1.35755 10.3014 1.25 10.0417 1.25 9.771V2.47933ZM2.27083 2.3335C2.23216 2.3335 2.19506 2.34886 2.16771 2.37621C2.14036 2.40356 2.125 2.44065 2.125 2.47933V9.771C2.125 9.8515 2.19033 9.91683 2.27083 9.91683H3.72917C3.8452 9.91683 3.95648 9.96292 4.03853 10.045C4.12057 10.127 4.16667 10.2383 4.16667 10.3543V12.2152L6.33667 10.0452C6.41863 9.96309 6.52984 9.91693 6.64583 9.91683H12.4792C12.5178 9.91683 12.5549 9.90147 12.5823 9.87412C12.6096 9.84677 12.625 9.80967 12.625 9.771V2.47933C12.625 2.44065 12.6096 2.40356 12.5823 2.37621C12.5549 2.34886 12.5178 2.3335 12.4792 2.3335H2.27083Z" fill="#CCCCCC"/>
</svg>
