<svg width="17" height="16" viewBox="0 0 17 16" fill="none" xmlns="http://www.w3.org/2000/svg">
<path class="fill-element" fill-rule="evenodd" clip-rule="evenodd" d="M10.7759 7.49569L10.777 7.49677L12.4772 5.78796C12.6108 5.65283 12.6857 5.47049 12.6857 5.28049C12.6857 5.09049 12.6108 4.90815 12.4772 4.77302L12.1367 4.42609C12 4.29555 11.8183 4.22271 11.6293 4.22271C11.4402 4.22271 11.2585 4.29555 11.1218 4.42609L9.64663 5.9031L9.6457 5.90217L2.11877 13.4291C2.05264 13.4951 2.00017 13.5736 1.96438 13.6599C1.92858 13.7463 1.91016 13.8388 1.91016 13.9323C1.91016 14.0257 1.92858 14.1183 1.96438 14.2046C2.00017 14.2909 2.05264 14.3694 2.11877 14.4354L2.47647 14.7845C2.54145 14.8522 2.61938 14.9062 2.70564 14.9432C2.79189 14.9803 2.8847 14.9996 2.97856 15C3.07194 15.0003 3.16444 14.9819 3.25065 14.946C3.33686 14.9102 3.41504 14.8574 3.48064 14.791L10.7759 7.49569ZM10.5507 7.27051L9.6457 6.36546L2.34934 13.6597C2.27683 13.7327 2.23614 13.8315 2.23614 13.9344C2.23614 14.0373 2.27683 14.1361 2.34934 14.2092L2.70704 14.5647C2.74275 14.6011 2.78534 14.6299 2.83232 14.6497C2.87931 14.6694 2.92976 14.6795 2.98071 14.6795C3.03167 14.6795 3.08211 14.6694 3.1291 14.6497C3.17609 14.6299 3.21868 14.6011 3.25438 14.5647L10.5507 7.27051ZM10.7802 7.03671L9.8752 6.13167L11.3567 4.6545C11.4316 4.5831 11.5311 4.54327 11.6346 4.54327C11.7381 4.54327 11.8377 4.5831 11.9126 4.6545L12.2617 5.00144C12.3353 5.07568 12.3765 5.17597 12.3765 5.28049C12.3765 5.38501 12.3353 5.4853 12.2617 5.55955L10.7802 7.03671Z" fill="#7990DA"/>
<path class="fill-element" fill-rule="evenodd" clip-rule="evenodd" d="M9.9024 3.70636C9.85955 3.70633 9.81847 3.68927 9.78819 3.65896C9.64671 3.51744 9.47875 3.40518 9.29388 3.32859C9.10901 3.252 8.91086 3.21258 8.71076 3.21258C8.51065 3.21258 8.31251 3.252 8.12764 3.32859C7.94277 3.40518 7.7748 3.51744 7.63333 3.65896C7.60302 3.68922 7.56195 3.70622 7.51912 3.70622C7.47629 3.70622 7.43521 3.68922 7.40491 3.65896C7.3898 3.64404 7.37783 3.62625 7.36969 3.60664C7.36155 3.58702 7.3574 3.56598 7.3575 3.54475C7.35728 3.5235 7.36137 3.50242 7.36952 3.48279C7.37766 3.46316 7.3897 3.44539 7.40491 3.43054C7.54643 3.28907 7.65869 3.1211 7.73528 2.93623C7.81187 2.75136 7.85129 2.55322 7.85129 2.35311C7.85129 2.15301 7.81187 1.95486 7.73528 1.76999C7.65869 1.58512 7.54643 1.41715 7.40491 1.27568C7.37465 1.24538 7.35765 1.2043 7.35765 1.16147C7.35765 1.11864 7.37465 1.07757 7.40491 1.04726C7.43521 1.017 7.47629 1 7.51912 1C7.56195 1 7.60302 1.017 7.63333 1.04726C7.7748 1.18878 7.94277 1.30104 8.12764 1.37763C8.31251 1.45423 8.51065 1.49365 8.71076 1.49365C8.91086 1.49365 9.10901 1.45423 9.29388 1.37763C9.47875 1.30104 9.64671 1.18878 9.78819 1.04726C9.81849 1.017 9.85957 1 9.9024 1C9.94522 1 9.9863 1.017 10.0166 1.04726C10.0462 1.07805 10.0631 1.11881 10.064 1.16147C10.0631 1.20414 10.0462 1.2449 10.0166 1.27568C9.87509 1.41715 9.76283 1.58512 9.68624 1.76999C9.60964 1.95486 9.57022 2.15301 9.57022 2.35311C9.57022 2.55322 9.60964 2.75136 9.68624 2.93623C9.76283 3.1211 9.87509 3.28907 10.0166 3.43054C10.0465 3.46108 10.0635 3.50199 10.064 3.54475C10.064 3.58761 10.047 3.62872 10.0167 3.65903C9.98637 3.68934 9.94526 3.70636 9.9024 3.70636ZM8.05352 1.69588C8.21434 2.11928 8.21434 2.58694 8.05352 3.01034C8.47643 2.85087 8.94293 2.85087 9.36584 3.01034C9.20778 2.58644 9.20778 2.11978 9.36584 1.69588C8.94293 1.85535 8.47643 1.85535 8.05352 1.69588Z" fill="#7990DA"/>
<path class="fill-element" fill-rule="evenodd" clip-rule="evenodd" d="M15.3111 3.47364C15.2686 3.47372 15.2277 3.45753 15.1969 3.42839C15.092 3.32323 14.9674 3.2398 14.8302 3.18287C14.693 3.12594 14.5459 3.09664 14.3974 3.09664C14.2489 3.09664 14.1018 3.12594 13.9646 3.18287C13.8274 3.2398 13.7028 3.32323 13.598 3.42839C13.5677 3.45865 13.5266 3.47565 13.4837 3.47565C13.4409 3.47565 13.3998 3.45865 13.3695 3.42839C13.3391 3.39772 13.3221 3.35628 13.3221 3.3131C13.3221 3.26992 13.3391 3.22849 13.3695 3.19782C13.4747 3.09293 13.5581 2.96832 13.6151 2.83114C13.672 2.69396 13.7013 2.54689 13.7013 2.39836C13.7013 2.24984 13.672 2.10277 13.6151 1.96559C13.5581 1.8284 13.4747 1.7038 13.3695 1.59891C13.3392 1.56863 13.3222 1.52755 13.3221 1.4847C13.3246 1.44429 13.3414 1.40609 13.3695 1.37696C13.3998 1.34669 13.4409 1.32969 13.4837 1.32969C13.5266 1.32969 13.5677 1.34669 13.598 1.37696C13.7028 1.48212 13.8274 1.56555 13.9646 1.62248C14.1018 1.6794 14.2489 1.70871 14.3974 1.70871C14.5459 1.70871 14.693 1.6794 14.8302 1.62248C14.9674 1.56555 15.092 1.48212 15.1969 1.37696C15.2278 1.34707 15.2691 1.33037 15.3121 1.33037C15.3552 1.33037 15.3965 1.34707 15.4274 1.37696C15.4577 1.40726 15.4747 1.44834 15.4747 1.49117C15.4747 1.53399 15.4577 1.57507 15.4274 1.60537C15.3223 1.71026 15.2388 1.83487 15.1819 1.97205C15.125 2.10923 15.0957 2.2563 15.0957 2.40483C15.0957 2.55335 15.125 2.70042 15.1819 2.8376C15.2388 2.97479 15.3223 3.09939 15.4274 3.20428C15.4573 3.23522 15.474 3.27655 15.474 3.31957C15.474 3.36258 15.4573 3.40392 15.4274 3.43485C15.3949 3.46198 15.3534 3.47583 15.3111 3.47364ZM14.3974 2.77331C14.5502 2.77292 14.7021 2.79618 14.8478 2.84226C14.7573 2.55399 14.7573 2.24489 14.8478 1.95662C14.5595 2.04713 14.2504 2.04713 13.9621 1.95662C14.054 2.24468 14.054 2.5542 13.9621 2.84226C14.103 2.79763 14.2497 2.77438 14.3974 2.77331Z" fill="#7990DA"/>
<path class="fill-element" fill-rule="evenodd" clip-rule="evenodd" d="M14.0914 7.67777C14.0486 7.67777 14.0075 7.66075 13.9772 7.63044C13.9469 7.60013 13.9298 7.55902 13.9298 7.51616C13.9339 7.47496 13.954 7.43703 13.9859 7.41057C14.1647 7.23123 14.2651 6.98829 14.2651 6.73502C14.2651 6.48175 14.1647 6.23882 13.9859 6.05947C13.9706 6.04463 13.9586 6.02685 13.9505 6.00722C13.9423 5.98759 13.9382 5.96652 13.9384 5.94527C13.9383 5.92403 13.9425 5.90299 13.9506 5.88338C13.9588 5.86377 13.9707 5.84598 13.9859 5.83106C14.0162 5.80079 14.0572 5.78379 14.1001 5.78379C14.1429 5.78379 14.184 5.80079 14.2143 5.83106C14.3936 6.00989 14.6365 6.11031 14.8898 6.11031C15.1431 6.11031 15.386 6.00989 15.5654 5.83106C15.5957 5.80079 15.6367 5.78379 15.6796 5.78379C15.7224 5.78379 15.7635 5.80079 15.7938 5.83106C15.8233 5.86184 15.8403 5.9026 15.8412 5.94527C15.8407 5.98802 15.8237 6.02893 15.7938 6.05947C15.705 6.14814 15.6345 6.25344 15.5865 6.36936C15.5384 6.48527 15.5136 6.60953 15.5136 6.73502C15.5136 6.86051 15.5384 6.98477 15.5865 7.10069C15.6345 7.21661 15.705 7.32191 15.7938 7.41057C15.8237 7.44111 15.8407 7.48202 15.8412 7.52478C15.8403 7.56745 15.8233 7.60821 15.7938 7.63899C15.7635 7.66925 15.7224 7.68625 15.6796 7.68625C15.6367 7.68625 15.5957 7.66925 15.5654 7.63899C15.4772 7.54764 15.3717 7.47476 15.2551 7.42458C15.1385 7.37441 15.013 7.34795 14.8861 7.34675C14.7591 7.34554 14.6332 7.36962 14.5156 7.41757C14.3981 7.46553 14.2912 7.5364 14.2013 7.62606C14.173 7.65712 14.1335 7.67571 14.0914 7.67777ZM14.5224 6.38486C14.5868 6.61386 14.5868 6.85619 14.5224 7.08519C14.7506 7.02049 14.9924 7.02049 15.2206 7.08519C15.1574 6.85603 15.1574 6.61402 15.2206 6.38486C14.9943 6.44512 14.7558 6.44214 14.531 6.37624L14.5224 6.38486Z" fill="#7990DA"/>
<path class="stroke-element" fill-rule="evenodd" clip-rule="evenodd" d="M10.7759 7.49569L10.777 7.49677L12.4772 5.78796C12.6108 5.65283 12.6857 5.47049 12.6857 5.28049C12.6857 5.09049 12.6108 4.90815 12.4772 4.77302L12.1367 4.42609C12 4.29555 11.8183 4.22271 11.6293 4.22271C11.4402 4.22271 11.2585 4.29555 11.1218 4.42609L9.64663 5.9031L9.6457 5.90217L2.11877 13.4291C2.05264 13.4951 2.00017 13.5736 1.96438 13.6599C1.92858 13.7463 1.91016 13.8388 1.91016 13.9323C1.91016 14.0257 1.92858 14.1183 1.96438 14.2046C2.00017 14.2909 2.05264 14.3694 2.11877 14.4354L2.47647 14.7845C2.54145 14.8522 2.61938 14.9062 2.70564 14.9432C2.79189 14.9803 2.8847 14.9996 2.97856 15C3.07194 15.0003 3.16444 14.9819 3.25065 14.946C3.33686 14.9102 3.41504 14.8574 3.48064 14.791L10.7759 7.49569ZM10.5507 7.27051L9.6457 6.36546L2.34934 13.6597C2.27683 13.7327 2.23614 13.8315 2.23614 13.9344C2.23614 14.0373 2.27683 14.1361 2.34934 14.2092L2.70704 14.5647C2.74275 14.6011 2.78534 14.6299 2.83232 14.6497C2.87931 14.6694 2.92976 14.6795 2.98071 14.6795C3.03167 14.6795 3.08211 14.6694 3.1291 14.6497C3.17609 14.6299 3.21868 14.6011 3.25438 14.5647L10.5507 7.27051ZM10.7802 7.03671L9.8752 6.13167L11.3567 4.6545C11.4316 4.5831 11.5311 4.54327 11.6346 4.54327C11.7381 4.54327 11.8377 4.5831 11.9126 4.6545L12.2617 5.00144C12.3353 5.07568 12.3765 5.17597 12.3765 5.28049C12.3765 5.38501 12.3353 5.4853 12.2617 5.55955L10.7802 7.03671Z" stroke="#7990DA" stroke-width="0.3"/>
<path class="stroke-element" fill-rule="evenodd" clip-rule="evenodd" d="M9.9024 3.70636C9.85955 3.70633 9.81847 3.68927 9.78819 3.65896C9.64671 3.51744 9.47875 3.40518 9.29388 3.32859C9.10901 3.252 8.91086 3.21258 8.71076 3.21258C8.51065 3.21258 8.31251 3.252 8.12764 3.32859C7.94277 3.40518 7.7748 3.51744 7.63333 3.65896C7.60302 3.68922 7.56195 3.70622 7.51912 3.70622C7.47629 3.70622 7.43521 3.68922 7.40491 3.65896C7.3898 3.64404 7.37783 3.62625 7.36969 3.60664C7.36155 3.58702 7.3574 3.56598 7.3575 3.54475C7.35728 3.5235 7.36137 3.50242 7.36952 3.48279C7.37766 3.46316 7.3897 3.44539 7.40491 3.43054C7.54643 3.28907 7.65869 3.1211 7.73528 2.93623C7.81187 2.75136 7.85129 2.55322 7.85129 2.35311C7.85129 2.15301 7.81187 1.95486 7.73528 1.76999C7.65869 1.58512 7.54643 1.41715 7.40491 1.27568C7.37465 1.24538 7.35765 1.2043 7.35765 1.16147C7.35765 1.11864 7.37465 1.07757 7.40491 1.04726C7.43521 1.017 7.47629 1 7.51912 1C7.56195 1 7.60302 1.017 7.63333 1.04726C7.7748 1.18878 7.94277 1.30104 8.12764 1.37763C8.31251 1.45423 8.51065 1.49365 8.71076 1.49365C8.91086 1.49365 9.10901 1.45423 9.29388 1.37763C9.47875 1.30104 9.64671 1.18878 9.78819 1.04726C9.81849 1.017 9.85957 1 9.9024 1C9.94522 1 9.9863 1.017 10.0166 1.04726C10.0462 1.07805 10.0631 1.11881 10.064 1.16147C10.0631 1.20414 10.0462 1.2449 10.0166 1.27568C9.87509 1.41715 9.76283 1.58512 9.68624 1.76999C9.60964 1.95486 9.57022 2.15301 9.57022 2.35311C9.57022 2.55322 9.60964 2.75136 9.68624 2.93623C9.76283 3.1211 9.87509 3.28907 10.0166 3.43054C10.0465 3.46108 10.0635 3.50199 10.064 3.54475C10.064 3.58761 10.047 3.62872 10.0167 3.65903C9.98637 3.68934 9.94526 3.70636 9.9024 3.70636ZM8.05352 1.69588C8.21434 2.11928 8.21434 2.58694 8.05352 3.01034C8.47643 2.85087 8.94293 2.85087 9.36584 3.01034C9.20778 2.58644 9.20778 2.11978 9.36584 1.69588C8.94293 1.85535 8.47643 1.85535 8.05352 1.69588Z" stroke="#7990DA" stroke-width="0.3"/>
<path class="stroke-element" fill-rule="evenodd" clip-rule="evenodd" d="M15.3111 3.47364C15.2686 3.47372 15.2277 3.45753 15.1969 3.42839C15.092 3.32323 14.9674 3.2398 14.8302 3.18287C14.693 3.12594 14.5459 3.09664 14.3974 3.09664C14.2489 3.09664 14.1018 3.12594 13.9646 3.18287C13.8274 3.2398 13.7028 3.32323 13.598 3.42839C13.5677 3.45865 13.5266 3.47565 13.4837 3.47565C13.4409 3.47565 13.3998 3.45865 13.3695 3.42839C13.3391 3.39772 13.3221 3.35628 13.3221 3.3131C13.3221 3.26992 13.3391 3.22849 13.3695 3.19782C13.4747 3.09293 13.5581 2.96832 13.6151 2.83114C13.672 2.69396 13.7013 2.54689 13.7013 2.39836C13.7013 2.24984 13.672 2.10277 13.6151 1.96559C13.5581 1.8284 13.4747 1.7038 13.3695 1.59891C13.3392 1.56863 13.3222 1.52755 13.3221 1.4847C13.3246 1.44429 13.3414 1.40609 13.3695 1.37696C13.3998 1.34669 13.4409 1.32969 13.4837 1.32969C13.5266 1.32969 13.5677 1.34669 13.598 1.37696C13.7028 1.48212 13.8274 1.56555 13.9646 1.62248C14.1018 1.6794 14.2489 1.70871 14.3974 1.70871C14.5459 1.70871 14.693 1.6794 14.8302 1.62248C14.9674 1.56555 15.092 1.48212 15.1969 1.37696C15.2278 1.34707 15.2691 1.33037 15.3121 1.33037C15.3552 1.33037 15.3965 1.34707 15.4274 1.37696C15.4577 1.40726 15.4747 1.44834 15.4747 1.49117C15.4747 1.53399 15.4577 1.57507 15.4274 1.60537C15.3223 1.71026 15.2388 1.83487 15.1819 1.97205C15.125 2.10923 15.0957 2.2563 15.0957 2.40483C15.0957 2.55335 15.125 2.70042 15.1819 2.8376C15.2388 2.97479 15.3223 3.09939 15.4274 3.20428C15.4573 3.23522 15.474 3.27655 15.474 3.31957C15.474 3.36258 15.4573 3.40392 15.4274 3.43485C15.3949 3.46198 15.3534 3.47583 15.3111 3.47364ZM14.3974 2.77331C14.5502 2.77292 14.7021 2.79618 14.8478 2.84226C14.7573 2.55399 14.7573 2.24489 14.8478 1.95662C14.5595 2.04713 14.2504 2.04713 13.9621 1.95662C14.054 2.24468 14.054 2.5542 13.9621 2.84226C14.103 2.79763 14.2497 2.77438 14.3974 2.77331Z" stroke="#7990DA" stroke-width="0.3"/>
<path class="stroke-element" fill-rule="evenodd" clip-rule="evenodd" d="M14.0914 7.67777C14.0486 7.67777 14.0075 7.66075 13.9772 7.63044C13.9469 7.60013 13.9298 7.55902 13.9298 7.51616C13.9339 7.47496 13.954 7.43703 13.9859 7.41057C14.1647 7.23123 14.2651 6.98829 14.2651 6.73502C14.2651 6.48175 14.1647 6.23882 13.9859 6.05947C13.9706 6.04463 13.9586 6.02685 13.9505 6.00722C13.9423 5.98759 13.9382 5.96652 13.9384 5.94527C13.9383 5.92403 13.9425 5.90299 13.9506 5.88338C13.9588 5.86377 13.9707 5.84598 13.9859 5.83106C14.0162 5.80079 14.0572 5.78379 14.1001 5.78379C14.1429 5.78379 14.184 5.80079 14.2143 5.83106C14.3936 6.00989 14.6365 6.11031 14.8898 6.11031C15.1431 6.11031 15.386 6.00989 15.5654 5.83106C15.5957 5.80079 15.6367 5.78379 15.6796 5.78379C15.7224 5.78379 15.7635 5.80079 15.7938 5.83106C15.8233 5.86184 15.8403 5.9026 15.8412 5.94527C15.8407 5.98802 15.8237 6.02893 15.7938 6.05947C15.705 6.14814 15.6345 6.25344 15.5865 6.36936C15.5384 6.48527 15.5136 6.60953 15.5136 6.73502C15.5136 6.86051 15.5384 6.98477 15.5865 7.10069C15.6345 7.21661 15.705 7.32191 15.7938 7.41057C15.8237 7.44111 15.8407 7.48202 15.8412 7.52478C15.8403 7.56745 15.8233 7.60821 15.7938 7.63899C15.7635 7.66925 15.7224 7.68625 15.6796 7.68625C15.6367 7.68625 15.5957 7.66925 15.5654 7.63899C15.4772 7.54764 15.3717 7.47476 15.2551 7.42458C15.1385 7.37441 15.013 7.34795 14.8861 7.34675C14.7591 7.34554 14.6332 7.36962 14.5156 7.41757C14.3981 7.46553 14.2912 7.5364 14.2013 7.62606C14.173 7.65712 14.1335 7.67571 14.0914 7.67777ZM14.5224 6.38486C14.5868 6.61386 14.5868 6.85619 14.5224 7.08519C14.7506 7.02049 14.9924 7.02049 15.2206 7.08519C15.1574 6.85603 15.1574 6.61402 15.2206 6.38486C14.9943 6.44512 14.7558 6.44214 14.531 6.37624L14.5224 6.38486Z" stroke="#7990DA" stroke-width="0.3"/>
</svg>
