<svg width="16" height="17" viewBox="0 0 16 17" fill="none" xmlns="http://www.w3.org/2000/svg">
<path d="M12.2582 3.88951V3.09951C12.2582 2.9669 12.3109 2.83973 12.4046 2.74596C12.4984 2.65219 12.6256 2.59951 12.7582 2.59951C12.8908 2.59951 13.018 2.65219 13.1117 2.74596C13.2055 2.83973 13.2582 2.9669 13.2582 3.09951V5.42851C13.2582 5.56112 13.2055 5.6883 13.1117 5.78206C13.018 5.87583 12.8908 5.92851 12.7582 5.92851H10.4302C10.2976 5.92851 10.1704 5.87583 10.0766 5.78206C9.98287 5.6883 9.9302 5.56112 9.9302 5.42851C9.9302 5.2959 9.98287 5.16873 10.0766 5.07496C10.1704 4.98119 10.2976 4.92851 10.4302 4.92851H11.8832C11.321 4.31605 10.6151 3.85342 9.82911 3.58249C9.04316 3.31156 8.20206 3.24087 7.38192 3.37683C6.56178 3.51278 5.78848 3.85108 5.13199 4.36113C4.4755 4.87117 3.95655 5.53685 3.6221 6.29794C3.28764 7.05903 3.14823 7.8915 3.21649 8.72003C3.28474 9.54856 3.55851 10.347 4.01301 11.0431C4.46751 11.7392 5.08841 12.311 5.81951 12.7067C6.55062 13.1024 7.36886 13.3096 8.2002 13.3095C8.8568 13.3095 9.50699 13.1802 10.1136 12.9289C10.7202 12.6776 11.2714 12.3093 11.7357 11.845C12.2 11.3808 12.5683 10.8296 12.8196 10.2229C13.0709 9.6163 13.2002 8.96612 13.2002 8.30951H14.2002C14.2002 9.90081 13.5681 11.4269 12.4428 12.5522C11.3176 13.6774 9.79149 14.3095 8.2002 14.3095C6.6089 14.3095 5.08277 13.6774 3.95755 12.5522C2.83234 11.4269 2.2002 9.90081 2.2002 8.30951C2.20011 7.14456 2.53916 6.00478 3.17597 5.02928C3.81277 4.05378 4.71978 3.28477 5.78629 2.81608C6.8528 2.3474 8.03269 2.19933 9.18194 2.38995C10.3312 2.58056 11.4001 3.10162 12.2582 3.88951Z" fill="#CCCCCC"/>
</svg>
