<svg width="14" height="14" viewBox="0 0 14 14" fill="none" xmlns="http://www.w3.org/2000/svg">
<path d="M7.0625 9.51562C7.0625 9.58438 7.11562 9.64062 7.17969 9.64062H10.0703C10.1344 9.64062 10.1875 9.58438 10.1875 9.51562V8.76562C10.1875 8.69688 10.1344 8.64062 10.0703 8.64062H7.17969C7.11562 8.64062 7.0625 8.69688 7.0625 8.76562V9.51562ZM4.01719 9.61094L7.01719 7.09531C7.07656 7.04531 7.07656 6.95312 7.01719 6.90312L4.01719 4.38906C3.99908 4.37366 3.97693 4.36378 3.95337 4.36059C3.92981 4.35741 3.90583 4.36105 3.88428 4.37108C3.86273 4.38112 3.84451 4.39713 3.83179 4.41721C3.81906 4.43729 3.81237 4.4606 3.8125 4.48438V5.46406C3.8125 5.50156 3.82812 5.53594 3.85781 5.55937L5.57344 7L3.85781 8.44063C3.84385 8.45232 3.83257 8.46688 3.82475 8.48333C3.81693 8.49978 3.81275 8.51773 3.8125 8.53594V9.51562C3.8125 9.62187 3.93594 9.67969 4.01719 9.61094ZM12.75 0.75H1.25C0.973437 0.75 0.75 0.973437 0.75 1.25V12.75C0.75 13.0266 0.973437 13.25 1.25 13.25H12.75C13.0266 13.25 13.25 13.0266 13.25 12.75V1.25C13.25 0.973437 13.0266 0.75 12.75 0.75ZM12.125 12.125H1.875V1.875H12.125V12.125Z" fill="#E3E3E3"/>
</svg>
