<svg width="14" height="14" viewBox="0 0 14 14" fill="none" xmlns="http://www.w3.org/2000/svg">
<path fill-rule="evenodd" clip-rule="evenodd" d="M5.76203 0.906558C7.04065 0.877505 8.28228 1.34217 9.22687 2.20441C10.1713 3.06671 10.747 4.26056 10.8343 5.53644C10.9183 6.76704 10.5407 7.98298 9.7796 8.94953L12.9896 12.1585L13.095 12.265L12.265 13.095L12.1585 12.9896L8.94953 9.7796C7.98298 10.5407 6.76705 10.9183 5.53644 10.8343C4.26055 10.747 3.06671 10.1713 2.20441 9.22687C1.34217 8.28228 0.877505 7.04065 0.906558 5.76203C0.935801 4.48349 1.45635 3.26497 2.36066 2.36066C3.26498 1.45635 4.48349 0.935798 5.76203 0.906558ZM6.62238 2.16828C5.88782 2.02223 5.12584 2.09751 4.4339 2.3841C3.74195 2.67075 3.14985 3.1559 2.73371 3.77863C2.31759 4.40139 2.09608 5.13414 2.09601 5.88312L2.10089 6.07062C2.14827 7.00632 2.54084 7.89419 3.20636 8.55988C3.91633 9.26985 4.87909 9.66899 5.88312 9.67023L6.16339 9.66046C6.81378 9.61222 7.44272 9.39661 7.98761 9.03253C8.61043 8.61636 9.09549 8.02438 9.38214 7.33234C9.66872 6.64034 9.74409 5.87847 9.59796 5.14386C9.45173 4.40943 9.09038 3.73491 8.56085 3.20539C8.03128 2.67594 7.35682 2.31443 6.62238 2.16828Z" fill="#E3E3E3"/>
</svg>
