<svg xmlns="http://www.w3.org/2000/svg" xmlns:xlink="http://www.w3.org/1999/xlink" height="800px" width="800px" version="1.1" id="Capa_1" viewBox="0 0 29.824 29.824" xml:space="preserve">
<g>
	<g>
		<path style="fill:#2196f3;" d="M18.498,21.472c-0.232-0.231-0.431-0.482-0.603-0.748h-1.312c0.318-0.186,0.672-0.344,1.05-0.471    c-0.279-0.566-0.432-1.176-0.462-1.792c-1.159,0.36-2.096,0.977-2.79,1.594V8.422c0.19-0.286,0.601-0.861,1.225-1.412    c0.861-0.754,2.058-1.446,3.661-1.446c1.651,0,2.909,0.741,3.798,1.526c0.438,0.391,0.771,0.786,0.992,1.08    c0.078,0.1,0.142,0.191,0.189,0.261v5.903c0.283,0.181,0.552,0.391,0.797,0.638c1.631,1.643,1.771,4.201,0.426,6.003l1.751,1.613    V9.804h-1.126V8.161L25.97,7.703c-0.034-0.054-0.584-1.01-1.683-1.991c-1.092-0.976-2.788-1.994-5.02-1.994    s-3.91,1.02-4.983,2.002c-0.33,0.305-0.61,0.603-0.839,0.876c-0.235-0.276-0.526-0.577-0.864-0.884    c-1.095-0.976-2.792-1.994-5.022-1.994c-2.236,0-3.913,1.02-4.986,2.002c-1.078,0.985-1.603,1.944-1.635,2L0.822,8.161v1.643H0    v13.7h26.201l-1.567-1.666C22.817,23.28,20.17,23.157,18.498,21.472z M4.873,20.724c0.728-0.429,1.614-0.742,2.686-0.744    c1.066,0,1.964,0.313,2.711,0.744H4.873z M12.534,20.098c-1.09-0.964-2.771-1.957-4.976-1.957H7.555    c-2.168,0-3.81,0.961-4.885,1.914V8.422C2.86,8.133,3.273,7.561,3.898,7.01c0.855-0.754,2.055-1.446,3.661-1.446    c1.65,0,2.907,0.741,3.792,1.526c0.436,0.391,0.777,0.786,0.996,1.08c0.077,0.1,0.142,0.191,0.188,0.261L12.534,20.098    L12.534,20.098z"/>
		<path style="fill:#2196f3;" d="M25.042,20.648c1.213-1.625,1.087-3.934-0.384-5.415c-1.621-1.63-4.252-1.638-5.884-0.019    c-1.631,1.618-1.64,4.253-0.02,5.883c1.507,1.518,3.895,1.629,5.534,0.329l4.398,4.679l1.138-1.048L25.042,20.648z M23.904,20.378    c-1.223,1.213-3.197,1.209-4.412-0.016c-1.215-1.221-1.205-3.196,0.017-4.411c1.221-1.216,3.197-1.209,4.41,0.015    C25.137,17.19,25.128,19.165,23.904,20.378z"/>
		<path style="fill:#2196f3;" d="M3.776,9.772l0.427,0.368c0.118-0.137,2.939-3.307,7.216,0.037l0.348-0.442    C7.073,6.062,3.81,9.736,3.776,9.772z"/>
		<path style="fill:#2196f3;" d="M3.776,11.661l0.427,0.368c0.118-0.137,2.939-3.309,7.216,0.036l0.348-0.442    C7.073,7.95,3.81,11.623,3.776,11.661z"/>
		<path style="fill:#2196f3;" d="M3.776,13.672l0.427,0.369c0.118-0.136,2.939-3.306,7.216,0.038l0.348-0.442    C7.073,9.962,3.81,13.637,3.776,13.672z"/>
		<path style="fill:#2196f3;" d="M15.262,8.921l0.424,0.369c0.119-0.136,2.939-3.307,7.217,0.038l0.346-0.443    C18.556,5.21,15.292,8.885,15.262,8.921z"/>
		<path style="fill:#2196f3;" d="M15.262,10.812l0.424,0.368c0.119-0.137,2.939-3.306,7.217,0.038l0.346-0.443    C18.556,7.101,15.292,10.775,15.262,10.812z"/>
		<path style="fill:#2196f3;" d="M15.262,12.822l0.424,0.369c0.119-0.136,2.939-3.308,7.217,0.038l0.346-0.443    C18.556,9.114,15.292,12.786,15.262,12.822z"/>
	</g>
</g>
</svg>