<svg width="34" height="34" viewBox="0 0 34 34" fill="none" xmlns="http://www.w3.org/2000/svg">
<path d="M30.2567 31.4665C24.8258 35.3273 18.0436 34.7252 13.3081 30.0044C11.8422 28.5431 11.0335 28.5268 9.49109 29.9277C7.16913 32.0367 4.05159 31.9635 1.78988 29.7469C-0.186653 27.8098 -0.558978 24.3323 0.971879 21.7637C1.2531 21.2918 1.27486 20.958 0.99758 20.4745C-0.324568 18.1689 -0.343021 15.8314 1.00522 13.5287C1.26356 13.0875 1.2763 12.7746 1.02935 12.3197C-0.683373 9.16444 -0.222355 6.13743 2.30384 3.73232C7.60106 -1.311 15.2719 -1.23559 20.6043 3.91225C22.2081 5.46051 22.8978 5.48136 24.5613 4.03185C26.8976 1.99621 29.9575 2.05858 32.1296 4.18611C34.1846 6.1989 34.5742 9.54463 33.0229 12.2246C32.7257 12.7381 32.736 13.0855 33.0294 13.5964C34.3153 15.8351 34.3206 18.1183 33.0623 20.3796C32.8193 20.8163 32.675 21.1466 32.96 21.6734C34.6951 24.8815 34.2241 27.8948 31.6402 30.3264C31.2194 30.7224 30.7546 31.0627 30.2567 31.4665ZM26.5092 28.802C27.635 28.2914 28.6121 27.5366 29.4876 26.6209C30.0339 26.0496 30.129 25.3268 29.9309 24.5798C29.7328 23.8331 29.1895 23.4418 28.5171 23.293C27.8061 23.1357 27.2887 23.5748 26.7946 24.044C25.2886 25.4741 23.5509 26.0244 21.5774 25.6873C20.1905 25.4503 19.0902 24.6671 18.0676 23.6478C14.1485 19.741 8.37365 19.719 4.75535 23.5578C3.89153 24.4743 3.78411 25.6063 4.48157 26.4431C5.18962 27.2925 6.16386 27.3707 7.05489 26.468C9.67788 23.8104 13.5595 24.2232 16.0181 26.7965C18.9831 29.8998 22.5528 30.4168 26.5092 28.802ZM9.10712 4.60121C7.49524 5.0705 6.04129 5.86103 4.79562 7.0907C4.41218 7.46922 4.11745 7.89843 4.04871 8.46134C3.94541 9.30714 4.23198 10.0021 4.91485 10.4036C5.65824 10.8407 6.38756 10.7046 7.03434 10.0987C8.15012 9.05337 9.38325 8.34718 10.9009 8.25638C12.9071 8.13636 14.5335 8.92139 15.9896 10.3888C19.7739 14.2027 25.3604 14.2707 29.1047 10.6039C30.0821 9.6466 30.2873 8.44175 29.6213 7.5694C28.8871 6.60772 27.841 6.63839 26.7665 7.65311C24.2441 10.035 20.7948 10.0151 18.3855 7.53275C15.7855 4.8539 12.7614 3.85009 9.10712 4.60121ZM26.7937 15.8513C23.9001 18.3488 20.7808 18.1996 18.0738 15.4498C16.2158 13.5624 14.0252 12.5742 11.4705 12.5527C8.85344 12.5306 6.58771 13.4893 4.68555 15.4312C3.84478 16.2896 3.79319 17.339 4.45215 18.1674C5.12474 19.0128 6.20408 19.1777 6.94843 18.3778C9.55535 15.5764 13.6213 16.0405 16.1042 18.6683C19.7453 22.5219 25.5854 22.4006 29.2038 18.7173C30.1239 17.7806 30.2884 16.5817 29.6104 15.7537C28.889 14.8726 27.875 14.874 26.7937 15.8513Z" fill="white"/>
</svg>
